<?xml version="1.0" encoding="UTF-8" standalone="no"?>
<!DOCTYPE svg PUBLIC "-//W3C//DTD SVG 1.1//EN" "http://www.w3.org/Graphics/SVG/1.1/DTD/svg11.dtd">
<svg width="100%" height="100%" viewBox="0 0 200 200" version="1.1" xmlns="http://www.w3.org/2000/svg" xmlns:xlink="http://www.w3.org/1999/xlink" xml:space="preserve" xmlns:serif="http://www.serif.com/" style="fill-rule:evenodd;clip-rule:evenodd;stroke-linejoin:round;stroke-miterlimit:2;">
    <path d="M100,200C155.228,200 200,155.228 200,100C200,44.772 155.228,0 100,0C44.772,0 0,44.772 0,100C0,155.228 44.772,200 100,200Z" style="fill:rgb(13,189,139);"/>
    <path d="M81.717,46.595C81.717,42.558 84.996,39.286 89.041,39.286C116.456,39.286 138.681,61.464 138.681,88.823C138.681,92.859 135.401,96.131 131.357,96.131C127.312,96.131 124.033,92.859 124.033,88.823C124.033,69.537 108.366,53.903 89.041,53.903C84.996,53.903 81.717,50.631 81.717,46.595Z" style="fill:white;"/>
    <path d="M153.39,81.514C157.435,81.514 160.714,84.786 160.714,88.822C160.714,116.181 138.49,138.359 111.075,138.359C107.03,138.359 103.751,135.087 103.751,131.05C103.751,127.014 107.03,123.742 111.075,123.742C130.4,123.742 146.066,108.108 146.066,88.822C146.066,84.786 149.345,81.514 153.39,81.514Z" style="fill:white;"/>
    <path d="M118.398,153.405C118.398,157.442 115.119,160.714 111.074,160.714C83.659,160.714 61.435,138.536 61.435,111.177C61.435,107.141 64.714,103.869 68.759,103.869C72.804,103.869 76.083,107.141 76.083,111.177C76.083,130.463 91.749,146.097 111.074,146.097C115.119,146.097 118.398,149.369 118.398,153.405Z" style="fill:white;"/>
    <path d="M46.61,118.486C42.565,118.486 39.286,115.214 39.286,111.178C39.286,83.819 61.51,61.641 88.926,61.641C92.97,61.641 96.249,64.913 96.249,68.95C96.249,72.986 92.97,76.258 88.926,76.258C69.6,76.258 53.934,91.892 53.934,111.178C53.934,115.214 50.655,118.486 46.61,118.486Z" style="fill:white;"/>
</svg>
