<?xml version="1.0" encoding="UTF-8" standalone="no"?>
<!DOCTYPE svg PUBLIC "-//W3C//DTD SVG 1.1//EN" "http://www.w3.org/Graphics/SVG/1.1/DTD/svg11.dtd">
<svg width="100%" height="100%" viewBox="0 0 456 513" version="1.1" xmlns="http://www.w3.org/2000/svg" xmlns:xlink="http://www.w3.org/1999/xlink" xml:space="preserve" xmlns:serif="http://www.serif.com/" style="fill-rule:evenodd;clip-rule:evenodd;stroke-linejoin:round;stroke-miterlimit:2;">
    <path d="M449.77,384.27C437.21,406.12 409.21,413.58 387.36,401.02C383.01,398.52 379.23,395.4 376.07,391.85L271.35,452.31C272.85,456.83 273.66,461.67 273.66,466.7C273.66,491.82 253.25,512.36 228,512.36C202.75,512.36 182.34,491.95 182.34,466.7C182.34,462.21 182.98,457.88 184.19,453.78L78.86,392.97C75.92,396.05 72.51,398.77 68.64,401.02C46.66,413.58 18.79,406.12 6.23,384.27C-6.33,362.42 1.13,334.55 22.98,321.86C26.84,319.64 30.89,318.05 35.01,317.05L35.01,195.34C30.84,194.34 26.75,192.74 22.85,190.5C1,177.94 -6.46,149.94 6.1,128.09C18.66,106.24 46.66,98.78 68.51,111.34C72.42,113.61 75.86,116.37 78.82,119.49L184.21,58.65C182.964,54.433 182.334,50.057 182.34,45.66C182.34,20.41 202.75,0 228,0C253.25,0 273.66,20.41 273.66,45.66C273.66,50.2 273,54.58 271.77,58.71L377.13,119.55C380.1,116.4 383.56,113.63 387.49,111.34C409.34,98.78 437.21,106.24 449.9,128.09C462.46,149.94 455,177.81 433.15,190.5C429.25,192.74 425.16,194.34 420.99,195.34L420.99,317.05C425.11,318.05 429.16,319.64 433.02,321.86C455,334.55 462.46,362.42 449.77,384.27ZM56.73,317.1C57.34,317.25 57.93,317.41 58.53,317.59L196.46,78.7C196.01,78.27 195.58,77.85 195.15,77.4L89.58,138.36C92.86,149.85 91.67,162.58 85.26,173.75C78.83,184.94 68.35,192.35 56.73,195.24L56.73,317.1ZM77.36,328.41C80.43,331.34 83.15,334.75 85.39,338.61C87.61,342.47 89.2,346.52 90.2,350.65L365.8,350.65C366.8,346.52 368.39,342.47 370.61,338.61C372.785,334.826 375.492,331.374 378.65,328.36L240.76,89.52C236.71,90.7 232.43,91.32 228,91.32C223.58,91.32 219.32,90.7 215.28,89.54L77.36,328.41ZM397.5,317.57C398.09,317.4 398.67,317.24 399.27,317.09L399.27,195.24C387.65,192.35 377.17,184.94 370.74,173.75C364.34,162.61 363.14,149.9 366.41,138.43L260.8,77.46C260.4,77.87 259.99,78.27 259.57,78.67L397.5,317.57ZM366.69,375.36C366.37,374.37 366.09,373.37 365.85,372.37L90.14,372.37C90,372.96 89.84,373.55 89.67,374.13L195.1,435.01C203.41,426.39 215.07,421.04 228,421.04C241.39,421.04 253.42,426.78 261.77,435.94L366.69,375.36Z" style="fill:rgb(229,53,171);fill-rule:nonzero;"/>
</svg>
