<?xml version="1.0" encoding="UTF-8" standalone="no"?>
<!DOCTYPE svg PUBLIC "-//W3C//DTD SVG 1.1//EN" "http://www.w3.org/Graphics/SVG/1.1/DTD/svg11.dtd">
<svg width="100%" height="100%" viewBox="0 0 99 79" version="1.1" xmlns="http://www.w3.org/2000/svg" xmlns:xlink="http://www.w3.org/1999/xlink" xml:space="preserve" xmlns:serif="http://www.serif.com/" style="fill-rule:evenodd;clip-rule:evenodd;stroke-linejoin:round;stroke-miterlimit:2;">
    <g transform="matrix(1,0,0,1,0,-14.3625)">
        <path d="M80.87,16.56C64.9,13.63 48.53,13.63 32.56,16.56C31.19,16.81 12.47,23.43 12.47,23.43L12.49,23.44C5.11,26 0,32.97 0,40.98L0,53.32C0,60.85 4.52,67.46 11.18,70.35L56.71,93.06L56.71,76.12C64.8,76.12 72.88,75.39 80.87,73.92C91.37,71.99 99,62.83 99,52.15L99,38.32C99,27.64 91.37,18.49 80.87,16.56ZM89.68,52.15C89.68,58.33 85.27,63.63 79.18,64.75C71.79,66.11 64.23,66.8 56.71,66.8C49.19,66.8 41.63,66.11 34.24,64.75C28.16,63.63 23.74,58.33 23.74,52.15L23.74,38.32C23.74,32.14 28.15,26.84 34.24,25.72C41.63,24.36 49.19,23.67 56.71,23.67C64.23,23.67 71.79,24.36 79.18,25.72C85.26,26.84 89.68,32.14 89.68,38.32L89.68,52.15Z" style="fill:rgb(42,72,223);fill-rule:nonzero;"/>
    </g>
    <g transform="matrix(1,0,0,1,0,-14.3625)">
        <path d="M42.69,54.51C40.55,54.51 38.81,52.77 38.81,50.63L38.81,39.84C38.81,37.7 40.55,35.96 42.69,35.96C44.83,35.96 46.57,37.7 46.57,39.84L46.57,50.63C46.57,52.77 44.83,54.51 42.69,54.51Z" style="fill:rgb(109,147,246);fill-rule:nonzero;"/>
    </g>
    <g transform="matrix(1,0,0,1,0,-14.3625)">
        <path d="M70.68,54.51C68.54,54.51 66.8,52.77 66.8,50.63L66.8,39.84C66.8,37.7 68.54,35.96 70.68,35.96C72.82,35.96 74.56,37.7 74.56,39.84L74.56,50.63C74.56,52.77 72.82,54.51 70.68,54.51Z" style="fill:rgb(109,147,246);fill-rule:nonzero;"/>
    </g>
</svg>
