<?xml version="1.0" encoding="UTF-8" standalone="no"?>
<!DOCTYPE svg PUBLIC "-//W3C//DTD SVG 1.1//EN" "http://www.w3.org/Graphics/SVG/1.1/DTD/svg11.dtd">
<svg width="100%" height="100%" viewBox="0 0 1993 2500" version="1.1" xmlns="http://www.w3.org/2000/svg" xmlns:xlink="http://www.w3.org/1999/xlink" xml:space="preserve" xmlns:serif="http://www.serif.com/" style="fill-rule:evenodd;clip-rule:evenodd;stroke-linejoin:round;stroke-miterlimit:2;">
    <path d="M995.775,0.027C1002.3,0.027 1006.28,0.389 1011,0.751C1014.62,1.114 1019.33,1.838 1021.5,2.201C1023.68,2.563 1027.66,3.65 1030.2,4.013C1032.74,4.737 1037.45,6.187 1040.71,7.274C1043.61,7.999 1048.68,9.81 1051.58,11.26C1054.48,12.347 1058.83,14.521 1061,15.608C1063.54,17.058 1258.85,130.115 1495.11,267.451C1731.37,404.424 1926.69,517.844 1929.22,519.656C1931.76,521.468 1936.11,524.729 1939.01,526.903C1941.54,529.078 1946.26,533.064 1949.15,535.962C1952.05,538.861 1956.04,542.847 1957.85,545.022C1959.66,546.833 1962.2,550.095 1963.65,552.269C1965.46,554.443 1967.63,557.342 1968.72,559.154C1970.17,560.966 1972.35,564.589 1973.8,567.126C1975.24,569.662 1977.42,574.011 1978.51,576.185C1979.59,578.721 1981.77,583.07 1982.85,585.969C1983.94,588.868 1985.39,592.854 1986.12,595.028C1986.84,597.564 1987.93,601.188 1988.65,603.724C1989.01,606.261 1990.1,610.609 1990.46,613.508C1991.19,616.045 1991.91,620.756 1992.28,623.292C1992.64,627.64 1992.64,658.441 1993,1132.41C1993,1492.6 1993,1638.63 1992.64,1642.62C1992.28,1645.52 1991.91,1650.23 1991.55,1653.13C1991.19,1655.67 1990.46,1659.29 1990.1,1660.74C1989.74,1662.55 1989.01,1665.81 1988.65,1668.35C1987.93,1670.52 1986.48,1674.87 1985.75,1677.77C1984.67,1680.67 1983.22,1685.02 1982.13,1687.19C1981.4,1689.73 1979.96,1692.99 1978.87,1694.8L1974.88,1702.77C1973.43,1705.31 1970.9,1709.3 1969.45,1711.83C1968,1714.01 1965.46,1717.63 1963.65,1719.8C1962.2,1721.62 1960.03,1724.52 1958.58,1725.97C1957.13,1727.78 1954.23,1731.04 1951.69,1733.57C1949.15,1736.11 1945.53,1739.37 1943.72,1741.18C1941.54,1743 1938.28,1745.89 1936.11,1747.34C1934.3,1748.79 1930.67,1751.33 1928.14,1752.78C1925.96,1754.59 1811.46,1820.9 1674.12,1900.62C1536.42,1980.34 1423.73,2045.93 1423.36,2046.29C1423,2046.66 1415.39,2051.01 1406.33,2056.08C1397.27,2061.51 1388.21,2066.59 1386.4,2067.67C1384.59,2068.76 1382.78,2069.85 1382.06,2070.57C1381.33,2070.93 1379.16,2072.75 1376.98,2074.56L1370.46,2081.08C1369.01,2082.89 1366.84,2085.79 1365.39,2087.6C1364.3,2089.05 1362.12,2092.68 1360.67,2095.21C1359.23,2097.75 1357.78,2101.37 1357.05,2103.18C1356.33,2105 1355.24,2108.26 1354.88,2110.43C1354.15,2112.24 1353.43,2115.51 1353.43,2117.68C1352.7,2120.58 1352.7,2125.65 1352.34,2144.13C1352.34,2156.82 1351.98,2193.05 1351.62,2225.3C1351.25,2277.84 1351.25,2293.79 1351.98,2391.63C1352.34,2451.42 1352.34,2499.97 1352.34,2499.97L1143.98,2379.31C1029.47,2312.63 933.811,2257.19 931.637,2256.1C929.463,2255.02 734.511,2141.6 498.25,2004.62C261.989,1867.65 66.675,1753.87 64.138,1752.06C61.602,1750.61 57.616,1747.71 55.442,1745.89C53.267,1744.08 49.281,1740.82 46.745,1738.65C44.571,1736.47 40.585,1732.85 38.411,1730.31C36.236,1727.78 33.337,1724.52 31.888,1722.7C30.439,1720.89 28.264,1717.99 26.815,1715.82C25.365,1714.01 23.191,1710.38 21.742,1708.21C20.292,1706.04 18.118,1702.05 16.669,1699.15C15.219,1696.61 13.045,1691.9 11.958,1689C10.509,1686.11 8.697,1681.39 7.61,1678.5C6.885,1675.6 5.435,1670.88 4.711,1668.71C4.348,1666.17 3.261,1662.55 2.899,1660.38C2.537,1658.2 2.174,1654.94 1.812,1652.4C1.449,1650.23 0.725,1645.16 0.725,1641.53C0,1635.74 0,1576.31 0,1136.04C0,693.228 0,636.337 0.725,630.539C0.725,626.916 1.449,622.205 1.812,620.031C2.174,617.857 2.537,613.871 3.261,611.334C3.624,609.16 4.711,605.174 5.073,603L8.334,593.216C9.059,590.317 11.233,585.244 12.32,582.345C13.77,579.446 16.306,574.373 18.118,571.474C19.568,568.213 22.467,563.502 24.278,560.966C26.09,558.429 28.627,554.443 30.439,552.269C32.25,550.095 35.512,546.471 37.686,543.934C39.86,541.398 43.484,537.412 46.02,535.238C48.557,533.064 52.18,529.802 54.355,527.99C56.529,526.541 60.877,523.28 64.138,521.106C67.037,518.931 88.417,506.249 111.608,493.204C134.437,479.796 327.214,367.463 539.922,243.535C752.992,119.607 929.463,17.058 932.724,15.608C935.623,13.796 941.058,11.622 944.32,10.173C947.581,8.723 952.654,7.274 955.191,6.187C957.727,5.462 962.075,4.375 964.612,3.65C967.149,3.288 971.497,2.201 974.033,1.838C976.57,1.476 980.556,1.114 982.73,0.751C984.904,0.389 986.716,0.389 986.716,0.027L995.775,0.027Z" style="fill:rgb(15,43,70);fill-rule:nonzero;"/>
    <path d="M756.615,642.135C762.413,642.135 768.211,642.497 771.11,642.86C774.009,643.222 778.357,643.947 780.894,644.309C783.793,645.034 788.141,645.759 791.04,646.483C793.576,647.208 797.925,648.658 800.461,649.382C802.998,650.107 806.621,651.556 808.433,652.281C810.245,653.006 814.593,654.818 817.855,656.267C821.116,658.079 825.464,660.253 828.001,661.703C830.175,662.79 833.799,665.326 835.611,666.413C837.785,667.863 841.046,670.037 842.495,671.486C844.307,672.574 847.206,674.748 849.018,676.56C850.83,678.009 855.178,682.357 859.164,685.981C862.788,689.967 867.499,694.678 869.31,696.852C870.76,699.026 873.659,702.287 875.108,704.462C876.558,706.636 879.457,710.984 881.268,713.521C883.08,716.42 885.617,721.493 887.429,725.116C889.24,728.378 891.415,733.813 892.864,736.712C893.951,739.973 895.401,743.959 895.763,745.409C896.488,747.22 897.212,750.119 897.937,751.931C898.299,753.743 899.024,757.004 899.749,759.541C900.111,761.715 900.836,765.339 901.198,767.15C901.561,768.962 901.923,772.586 902.285,775.485C902.648,778.021 903.01,783.819 903.01,787.805L903.01,801.213C902.648,804.112 902.285,808.098 901.923,809.909C901.923,811.359 901.198,815.345 900.836,817.881C900.111,820.78 899.387,824.404 899.024,826.578C898.299,829.477 898.299,830.564 898.299,830.564C898.662,830.926 987.079,882.382 1290.74,1059.58L1294,1056.32C1295.81,1054.51 1298.71,1051.97 1299.8,1050.88C1301.25,1049.79 1304.87,1046.89 1307.41,1045.08C1309.94,1042.91 1314.29,1040.01 1317.19,1038.2C1319.73,1036.75 1324.08,1034.21 1327.34,1032.4C1330.24,1030.95 1334.95,1028.78 1337.85,1027.33C1340.75,1026.24 1345.82,1024.43 1348.72,1023.34C1351.62,1022.62 1356.69,1020.81 1360.31,1020.08C1363.57,1019.36 1368.29,1018.27 1370.82,1017.91C1373,1017.54 1376.98,1016.82 1379.16,1016.82C1381.69,1016.46 1387.13,1016.09 1395.1,1016.09C1404.88,1016.09 1408.51,1016.46 1412.49,1016.82C1415.03,1017.18 1419.38,1017.91 1422.28,1018.27C1424.81,1018.99 1429.16,1019.72 1432.06,1020.44C1434.6,1021.17 1439.31,1022.62 1442.57,1023.7C1445.47,1024.79 1449.82,1026.24 1451.63,1027.33C1453.44,1028.05 1457.43,1029.86 1460.33,1031.31C1463.22,1032.76 1467.93,1034.94 1470.47,1036.75C1473.37,1038.56 1476.63,1040.37 1478.08,1041.46C1479.17,1042.55 1481.7,1044 1483.15,1045.45C1484.97,1046.53 1487.87,1048.71 1489.68,1050.52C1491.49,1051.97 1495.11,1055.59 1498.01,1058.13C1500.91,1061.03 1504.53,1065.01 1506.35,1066.83C1508.16,1069 1511.06,1072.26 1512.51,1074.43C1514.32,1076.61 1516.85,1080.23 1518.67,1082.77C1520.12,1084.94 1522.29,1088.57 1523.74,1091.1C1525.19,1093.28 1527,1096.54 1527.73,1098.35C1528.45,1099.8 1530.26,1103.79 1531.71,1106.68C1532.8,1109.58 1534.61,1114.3 1535.7,1116.83C1536.42,1119.73 1537.87,1123.72 1538.6,1126.25C1539.32,1128.79 1540.05,1133.14 1540.77,1135.67C1541.13,1138.57 1541.86,1142.92 1542.22,1145.82C1542.58,1148.72 1543.31,1154.15 1543.31,1158.14C1543.55,1162.97 1543.55,1167.68 1543.31,1172.27C1543.31,1176.26 1542.94,1181.33 1542.58,1183.87C1542.22,1186.4 1541.5,1190.39 1541.13,1193.29C1540.41,1195.83 1539.68,1199.81 1538.96,1202.35C1538.23,1204.89 1536.78,1209.6 1536.06,1212.86C1534.61,1216.12 1532.8,1221.19 1531.71,1224.09C1530.26,1226.99 1528.45,1230.98 1527.73,1232.42C1527,1234.24 1525.19,1237.5 1523.74,1239.67C1522.29,1242.21 1520.48,1245.11 1519.39,1246.56C1518.67,1248.01 1516.49,1251.27 1514.68,1253.44C1513.23,1255.62 1510.33,1259.24 1508.88,1261.05C1507.07,1262.86 1503.81,1266.85 1501.27,1269.39C1498.74,1271.92 1494.75,1275.91 1492.58,1277.72C1490.4,1279.89 1486.78,1282.79 1484.6,1284.24C1482.79,1285.69 1479.17,1288.59 1476.63,1290.04C1474.46,1291.49 1470.83,1293.66 1469.02,1294.75C1467.21,1295.84 1463.59,1298.01 1460.69,1299.1C1458.15,1300.55 1454.16,1302.36 1451.99,1303.45C1450.18,1304.17 1446.56,1305.62 1444.38,1306.35C1442.21,1307.07 1437.86,1308.52 1434.96,1309.25C1432.42,1309.97 1427.71,1311.06 1424.45,1311.78C1421.55,1312.51 1416.48,1313.23 1413.22,1313.6C1407.78,1314.32 1405.25,1314.68 1395.46,1314.68C1386.4,1314.68 1382.78,1314.32 1378.79,1313.96C1375.89,1313.6 1371.55,1312.87 1368.65,1312.51L1358.5,1309.97C1355.6,1309.25 1350.53,1307.8 1347.63,1306.71C1344.37,1305.62 1339.66,1303.81 1337.48,1303.09C1334.95,1302 1330.6,1299.83 1327.7,1298.38C1324.8,1296.93 1320.45,1294.39 1318.28,1292.94C1316.11,1291.85 1313.21,1290.04 1312.12,1288.95C1310.67,1287.87 1308.13,1286.42 1306.68,1284.97C1304.87,1283.88 1301.97,1281.34 1299.8,1279.53C1297.99,1278.08 1293.64,1273.74 1290.38,1270.84C1287.48,1267.58 1283.49,1263.23 1281.68,1261.41C1279.87,1259.24 1277.33,1255.98 1276.25,1254.17C1274.8,1252.36 1272.62,1249.46 1271.53,1247.64C1270.09,1245.83 1267.91,1242.21 1266.46,1239.67C1265.01,1237.14 1262.84,1232.79 1261.39,1230.25C1260.3,1227.35 1258.13,1223 1257.04,1220.11C1255.95,1217.21 1254.5,1213.22 1253.78,1210.68C1253.05,1208.51 1251.97,1204.52 1251.24,1201.62C1250.52,1198.73 1249.43,1194.74 1249.07,1192.57C1248.7,1190.03 1247.98,1186.4 1247.62,1183.87C1247.62,1181.33 1246.89,1176.26 1246.89,1172.27C1246.53,1167.92 1246.53,1162.85 1246.89,1158.5C1246.89,1154.88 1247.62,1149.44 1247.62,1146.91C1247.98,1144.37 1249.07,1139.3 1249.79,1135.67C1250.15,1132.41 1251.6,1127.34 1252.33,1125.17C1252.69,1122.63 1253.42,1120.09 1253.78,1119.73C1254.02,1119.25 1253.9,1119.13 1253.42,1119.37C1253.05,1119.73 1200.15,1089.29 863.15,893.615L857.352,898.688C854.453,901.587 850.105,905.573 847.931,907.385C845.757,909.197 842.133,912.096 839.959,913.545C837.422,915.357 833.799,917.894 831.987,918.981C829.813,920.43 825.464,922.604 822.203,924.416C818.942,926.228 814.593,928.402 812.057,929.127C809.883,930.214 805.534,932.026 802.998,932.751C800.461,933.838 796.113,934.925 793.214,935.65C790.677,936.374 787.054,937.461 784.88,937.824C782.705,938.186 779.807,938.911 777.995,939.273C776.183,939.273 772.922,939.998 770.747,939.998C768.211,940.36 762.413,940.723 754.441,940.723C743.933,940.723 741.396,940.36 736.323,939.636C733.062,939.273 727.989,938.548 725.452,938.186C722.915,937.461 718.567,936.374 715.306,935.65C712.407,934.925 708.059,933.475 705.522,932.388C702.985,931.664 699.362,930.214 697.188,929.127C695.376,928.402 691.027,926.59 688.129,924.779C684.867,923.329 680.157,920.793 677.62,918.981C674.721,917.169 670.735,914.632 668.199,912.821C666.024,911.009 662.401,908.472 660.951,907.023C659.139,905.573 655.878,902.674 653.342,900.138C650.805,897.601 646.819,893.615 644.645,891.079C642.471,888.905 639.209,884.919 637.398,882.744C635.586,880.57 632.687,876.584 630.875,873.685C629.063,870.786 626.527,867.163 625.802,865.351C624.715,863.902 622.903,860.64 621.816,858.104C620.729,855.567 618.917,851.944 617.83,849.407C616.743,847.233 615.293,842.522 613.844,838.898C612.757,835.637 611.307,830.926 610.945,829.115C610.22,826.94 609.496,823.317 609.133,820.78C608.409,817.881 607.684,813.533 607.321,810.272C606.597,806.648 606.597,801.575 606.234,795.052C606.234,789.255 606.234,783.457 606.597,780.196C606.597,777.659 607.321,772.948 607.684,770.049C608.046,767.15 608.771,763.527 609.133,762.077C609.133,760.628 610.22,757.367 610.583,754.83C611.307,752.294 612.395,748.308 613.482,745.771C614.206,743.234 615.656,739.248 616.381,736.712C617.468,734.538 619.279,729.827 620.729,726.928C622.541,723.667 624.353,719.681 625.44,718.231C626.164,716.42 628.339,713.158 629.788,710.984C631.237,708.81 633.774,705.186 635.223,703.012C637.035,700.838 639.572,697.214 641.384,695.04C643.195,693.228 647.181,688.88 650.08,685.619C653.342,682.72 658.052,678.371 660.589,676.197C663.125,674.023 667.474,670.762 669.648,668.95C672.185,667.5 676.171,664.602 678.707,663.152C681.244,661.703 685.592,659.166 688.129,657.717C691.027,656.63 695.013,654.455 697.912,653.368C700.449,652.281 705.16,650.469 707.696,649.745C710.595,648.658 715.668,647.208 718.929,646.483C721.828,645.759 726.901,644.672 729.8,643.947C732.699,643.584 737.048,643.222 739.584,642.86C741.758,642.497 744.295,642.497 745.382,642.135L756.615,642.135ZM1209.93,1261.05C1210.3,1261.05 1226.24,1270.11 1245.81,1280.98C1265.01,1292.21 1280.95,1301.27 1281.32,1301.27C1281.32,1301.64 1195.08,1351.64 1089.99,1412.88C906.271,1519.78 898.662,1524.13 899.024,1525.21C899.024,1525.58 899.749,1528.48 900.111,1531.38C900.836,1534.27 901.561,1538.62 901.923,1541.16C902.285,1543.7 902.648,1548.04 903.01,1551.31C903.01,1554.57 903.373,1559.64 903.01,1564.35C903.01,1568.7 902.648,1574.13 902.285,1577.03C901.923,1579.57 901.561,1583.56 901.198,1585.37C900.836,1587.18 900.111,1590.08 899.749,1592.25C899.387,1594.06 898.299,1597.69 897.937,1600.22C897.212,1602.76 896.125,1606.38 895.401,1608.56C894.676,1610.73 893.226,1613.99 892.502,1615.81C891.777,1617.62 889.965,1621.97 888.516,1625.23C887.066,1628.13 884.892,1632.48 883.805,1634.29C882.718,1636.1 880.181,1640.08 878.007,1643.35C876.195,1646.25 872.572,1651.32 870.397,1653.85C868.223,1656.75 863.875,1661.46 860.614,1664.73C857.352,1667.99 853.004,1672.34 850.83,1674.15C848.656,1676.32 845.032,1678.86 843.22,1680.31C841.408,1681.76 837.785,1684.29 835.611,1685.74C833.799,1687.19 830.175,1689.37 828.363,1690.45C826.551,1691.54 822.203,1693.71 818.942,1695.16C815.681,1696.98 811.332,1698.79 808.796,1699.87C806.621,1700.6 802.998,1702.05 800.824,1702.77C798.649,1703.5 795.388,1704.59 793.214,1704.95C791.04,1705.67 787.779,1706.4 785.967,1706.76C783.793,1707.12 780.894,1707.85 779.082,1708.21C777.27,1708.57 773.284,1708.93 770.747,1709.3C767.849,1709.66 762.413,1710.02 758.427,1710.02C754.079,1710.38 749.006,1710.02 745.382,1710.02C742.121,1709.66 737.772,1709.3 735.598,1708.93C733.062,1708.57 728.713,1707.85 725.452,1707.12C722.553,1706.76 718.567,1705.67 716.755,1705.31C714.943,1704.59 711.682,1703.5 709.146,1703.14C706.971,1702.05 703.348,1700.96 701.174,1699.87C698.637,1699.15 694.289,1696.98 691.027,1695.53C688.129,1694.08 683.78,1691.9 681.606,1690.45C679.432,1689.37 675.446,1686.83 673.272,1685.38C670.735,1683.57 667.111,1681.39 665.3,1679.94C663.488,1678.5 660.589,1675.96 658.415,1674.15C656.603,1672.7 652.255,1668.35 648.993,1665.09C645.37,1661.46 641.384,1656.75 639.572,1654.94C638.122,1652.77 635.586,1649.87 634.499,1648.06C633.412,1646.61 631.237,1643.71 630.15,1641.9C628.701,1639.72 626.889,1636.46 625.44,1634.29C624.353,1632.11 622.541,1629.21 621.816,1627.4C621.091,1625.95 619.279,1622.33 618.192,1619.43C616.743,1616.53 615.293,1611.82 614.206,1609.28C613.119,1606.38 611.67,1601.31 610.945,1597.69C609.858,1594.06 608.771,1589.35 608.409,1586.82C608.046,1584.64 607.321,1580.66 606.959,1578.12C606.597,1574.5 606.597,1570.87 606.597,1560.73C606.597,1549.86 606.597,1547.32 607.321,1542.25C607.684,1538.99 608.409,1533.91 609.133,1531.01C609.858,1527.75 610.945,1522.68 612.032,1519.42C612.757,1516.52 614.206,1511.81 615.293,1509.27C616.018,1506.74 617.83,1502.39 618.917,1499.85C620.004,1497.31 621.816,1494.05 622.541,1492.6C623.265,1491.15 625.077,1488.25 625.802,1486.44C626.889,1484.63 629.063,1481.01 630.875,1478.47C632.687,1475.93 635.223,1471.95 637.035,1469.77C638.847,1467.6 641.384,1464.34 643.195,1462.53C644.645,1460.71 648.631,1456.37 651.892,1453.47C655.153,1450.21 660.227,1445.86 662.763,1443.68C665.662,1441.15 669.648,1438.25 671.46,1437.16C673.634,1435.71 676.533,1433.54 678.345,1432.45C680.157,1431.36 684.867,1428.83 688.491,1427.02C692.477,1424.84 697.55,1422.67 699.724,1421.94C701.898,1420.85 705.884,1419.4 708.421,1418.68C711.32,1417.59 715.306,1416.51 717.842,1415.78C720.379,1415.42 724.365,1414.33 727.264,1413.97C729.8,1413.25 733.786,1412.52 736.323,1412.52C738.859,1412.16 743.933,1411.8 747.556,1411.43L761.326,1411.43C764.95,1411.8 770.385,1412.16 772.559,1412.52C775.096,1412.52 779.082,1413.25 781.981,1413.97C784.517,1414.33 788.866,1415.42 791.765,1416.14C794.301,1416.87 799.374,1418.32 802.273,1419.4C805.172,1420.13 809.883,1421.94 812.057,1423.03C814.593,1424.12 818.942,1426.29 822.203,1427.74C825.464,1429.55 830.175,1432.09 832.349,1433.54L839.959,1438.61C841.771,1440.06 845.032,1442.23 846.844,1443.68C848.656,1445.13 852.279,1448.76 855.541,1451.65C858.439,1454.19 861.701,1457.45 864.6,1460.71L1037.09,1361.06C1132.39,1305.99 1209.93,1261.05 1209.93,1261.05Z" style="fill:white;fill-rule:nonzero;"/>
</svg>
