<svg version="1.1" id="Layer_1" xmlns:x="ns_extend;" xmlns:i="ns_ai;" xmlns:graph="ns_graphs;" xmlns="http://www.w3.org/2000/svg" xmlns:xlink="http://www.w3.org/1999/xlink" x="0px" y="0px" viewBox="0 0 66.6 66" style="enable-background:new 0 0 66.6 66;" xml:space="preserve">
 <style type="text/css">
  .st0{fill:#027E6F;}
	.st1{fill:#FFFFFF;}
 </style>
 <metadata>
  <sfw xmlns="ns_sfw;">
   <slices>
   </slices>
   <sliceSourceBounds bottomLeftOrigin="true" height="66" width="66.6" x="-29.9" y="-216.6">
   </sliceSourceBounds>
  </sfw>
 </metadata>
 <g>
  <path class="st0" d="M0,33C0,14.8,14.9,0,33.3,0c18.4,0,33.3,14.8,33.3,33c0,15.9-11.4,29.3-26.6,32.3c-2.2,0.4-4.4,0.7-6.7,0.7H0
		V33L0,33z">
  </path>
  <path class="st1" d="M56.4,29.9h-15l-3.5,6.1h12.4c-1.9,10.6-13.8,17.7-25.6,11.7c-2.5-1.3-4.6-3.3-6-5.8
		C11.8,28.9,21.1,16,33.4,16c5.1,0,9.6,2.2,12.8,5.7l3.2-5.4C44.8,12,38.6,9.5,31.8,10c-11.6,0.8-21,10.3-21.5,21.8
		C9.6,45,20.2,55.9,33.4,55.9c13.2,0,23.2-10.3,23.2-23C56.6,31.9,56.5,30.9,56.4,29.9L56.4,29.9z">
  </path>
 </g>
</svg>