<?xml version="1.0" encoding="UTF-8" standalone="no"?>
<!DOCTYPE svg PUBLIC "-//W3C//DTD SVG 1.1//EN" "http://www.w3.org/Graphics/SVG/1.1/DTD/svg11.dtd">
<svg width="100%" height="100%" viewBox="0 0 256 264" version="1.1" xmlns="http://www.w3.org/2000/svg" xmlns:xlink="http://www.w3.org/1999/xlink" xml:space="preserve" xmlns:serif="http://www.serif.com/" style="fill-rule:evenodd;clip-rule:evenodd;stroke-linejoin:round;stroke-miterlimit:2;">
    <path d="M255.856,59.62C255.951,59.971 256,60.333 256,60.697L256,117.265C256,118.743 255.209,120.108 253.927,120.843L206.449,148.179L206.449,202.36C206.449,203.834 205.665,205.195 204.387,205.938L105.279,262.991C105.052,263.119 104.805,263.202 104.557,263.29C104.464,263.321 104.377,263.377 104.279,263.403C103.586,263.585 102.858,263.585 102.165,263.403C102.051,263.372 101.948,263.31 101.84,263.269C101.613,263.186 101.376,263.114 101.16,262.991L2.073,205.938C0.791,205.202 -0,203.837 -0,202.36L-0,32.656C-0,32.284 0.052,31.923 0.144,31.573C0.175,31.454 0.247,31.346 0.289,31.227C0.366,31.011 0.438,30.789 0.552,30.588C0.629,30.454 0.742,30.346 0.835,30.222C0.954,30.057 1.062,29.887 1.201,29.743C1.32,29.624 1.475,29.536 1.609,29.433C1.758,29.309 1.892,29.175 2.062,29.077L2.067,29.077L51.613,0.551C52.89,-0.184 54.461,-0.184 55.738,0.551L105.284,29.077L105.294,29.077C105.459,29.181 105.599,29.309 105.748,29.428C105.882,29.531 106.032,29.624 106.15,29.737C106.295,29.887 106.398,30.057 106.521,30.222C106.609,30.346 106.728,30.454 106.8,30.588C106.918,30.794 106.985,31.011 107.068,31.227C107.109,31.346 107.181,31.454 107.212,31.578C107.307,31.929 107.356,32.292 107.357,32.656L107.357,138.651L148.643,114.878L148.643,60.692C148.643,60.331 148.695,59.965 148.788,59.62C148.824,59.496 148.891,59.388 148.932,59.269C149.015,59.053 149.087,58.831 149.2,58.63C149.277,58.496 149.391,58.388 149.479,58.264C149.602,58.099 149.705,57.929 149.85,57.784C149.968,57.666 150.118,57.578 150.252,57.475C150.407,57.351 150.541,57.217 150.706,57.119L150.711,57.119L200.262,28.593C201.538,27.857 203.11,27.857 204.387,28.593L253.933,57.119C254.108,57.222 254.242,57.351 254.397,57.47C254.525,57.573 254.675,57.666 254.794,57.779C254.938,57.929 255.041,58.099 255.165,58.264C255.258,58.388 255.371,58.496 255.443,58.63C255.562,58.831 255.629,59.053 255.711,59.269C255.758,59.388 255.825,59.496 255.856,59.62ZM247.741,114.878L247.741,67.838L230.402,77.819L206.449,91.611L206.449,138.651L247.746,114.878L247.741,114.878ZM198.195,199.973L198.195,152.901L174.633,166.358L107.352,204.757L107.352,252.272L198.195,199.973ZM8.259,39.796L8.259,199.973L99.092,252.267L99.092,204.762L51.639,177.906L51.624,177.896L51.603,177.886C51.443,177.793 51.309,177.659 51.16,177.546C51.031,177.442 50.881,177.36 50.768,177.246L50.758,177.231C50.624,177.102 50.531,176.942 50.417,176.798C50.314,176.659 50.191,176.54 50.108,176.396L50.103,176.38C50.01,176.226 49.953,176.04 49.886,175.865C49.819,175.71 49.732,175.566 49.69,175.401L49.69,175.396C49.639,175.2 49.629,174.993 49.608,174.792C49.587,174.638 49.546,174.483 49.546,174.328L49.546,63.569L25.598,49.772L8.259,39.801L8.259,39.796ZM53.681,8.893L12.399,32.656L53.671,56.418L94.947,32.65L53.671,8.893L53.681,8.893ZM75.149,157.191L99.097,143.405L99.097,39.796L81.759,49.778L57.805,63.569L57.805,167.177L75.149,157.191ZM202.324,36.935L161.048,60.697L202.324,84.46L243.595,60.692L202.324,36.935ZM198.195,91.611L174.241,77.819L156.903,67.838L156.903,114.878L180.851,128.665L198.195,138.651L198.195,91.611ZM103.217,197.617L163.76,163.053L194.024,145.781L152.778,122.034L105.289,149.375L62.007,174.292L103.217,197.617Z" style="fill:rgb(255,45,32);fill-rule:nonzero;"/>
</svg>
