<svg id="Layer_1" data-name="Layer 1" xmlns="http://www.w3.org/2000/svg" viewBox="0 0 763.87 755.86"><defs><style>.cls-1{fill:#231f20;}.cls-2{fill:#fefefe;}.cls-3{fill:#ee6593;}.cls-4{fill:#f7bdc1;}.cls-5{fill:#ec6493;}.cls-6{fill:#eb6492;}.cls-7{fill:#242021;}.cls-8{fill:#252122;}.cls-9{fill:#352c2d;}.cls-10{fill:#f4999e;}.cls-11{fill:#f5b3bd;}.cls-12{fill:#f1f8f8;}.cls-13{fill:#0eb1db;}.cls-14{fill:#f9fafd;}.cls-15{fill:#f9fafc;}</style></defs><title>8</title><path class="cls-1" d="M1721.61,114.61c4.69,1.6,9.53,2.87,14.06,4.86,20.21,8.85,32.81,24.51,37.84,45.65,6.54,27.47,6.7,54.82-10.14,79.09-5.14,7.41-6.5,13.53-4.28,21.77,3,11.14,2.8,22.73,3.09,35,3.7-2.12,6.82-3.92,10-5.7,11.41-6.47,24.14-8.72,36.7-11.61,17.9-4.1,34.68-10.94,49.55-21.94,5.22-3.86,10.36-7.95,12.66-14.29,1.51-4.17,3.49-3.82,5.87-1.14,4,4.48,8,9,11.61,13.73,19.08,24.8,36.23,51,43.31,81.77,11,47.51,3,92-26.37,131.89-2.87,3.89-5.88,7.68-9.65,12.59,15.11-4.56,29.25-8.19,43.84-9.34,20.07-1.59,40.13-2.31,59.53,4.79,22,8.09,34.38,23.86,37.16,47.14a59.52,59.52,0,0,1,.11,16.86c-12.51,83.44-49.59,151.75-122.17,198.1-4,2.55-5.31,4.89-5.15,9.81.91,27.76-.28,55.37-8.68,82.16a75.89,75.89,0,0,1-9.3,20c-9,13.32-19.71,17.25-35.23,13.06-13.32-3.59-25.08-10.39-36.3-18.1-31-21.27-58.07-47-84.2-73.77a37.85,37.85,0,0,1-3.79-4c-2.71-3.77-4.87-3.76-8.65-.62-19.13,15.88-40.22,28.44-64,36.1-10.1,3.25-20.48,5.13-31,7l10.58,1.33c1.66.21,3.77.69,3.56,2.48-.18,1.53-2.12,1.89-4,1.7-7.59-.76-15-2.48-22.42-4-40.83-8.59-73.23-31.18-102-60.29-7.54-7.64-18.78-9.31-28.22-13.92-1.27-.62-3.79,1.12-5.65,1.94-32.43,14.38-65,28.38-99.88,35.86-12.47,2.67-25.11,4.17-37.78,1.67-15-2.94-23.79-12.85-26.64-29-4.66-26.28,1-51.36,9-76.11,2.36-7.22,4.88-14.41,7.85-21.39,1.49-3.52.92-5.82-1.37-8.67a218.18,218.18,0,0,1-23.89-36.33c-2-3.9-4.32-5.07-8.72-4.61-5.73.61-11.17,2.54-17.61,3.4,4.33-5.78,9.51-9.56,14.44-13.56,2.07-1.67,3.33-3.19,1.84-5.73-5.67-9.7-8.06-20.81-12.57-31-2.53-5.7-3-14-4.42-21.13-7.84-39.3-9.88-78.66-2-118.18,2.35-11.83,6.41-23.08,13.6-33,8.11-11.17,18.93-17.47,32.86-17.38,4,0,4.69-1,5-4.79,3.75-42.22,20.23-78.82,49.09-109.91,3.28-3.54,5.36-3.78,8.7.07,18.09,20.78,40.18,34.72,67.54,40.4,15.75,3.27,30.72,9.42,46,16.71-.37-7.27-.83-13.79-1-20.32-.37-13.89.58-27.68,4-41.18,7.82-30.49,29.7-41,58.58-28.54,3.24,1.4,6.52,5.63,9.54,3.68,1.91-1.24,1.28-6.39,1.84-9.77a76.3,76.3,0,0,1,5.2-17.89c8.37-19.42,24.87-29.39,46.13-28.32,16.13.8,32.09,3.56,48.31,3.42,29.94-.26,40.26-9.42,42.84-39.27.55-6.38,1-12.85-.4-19.24Z" transform="translate(-1273.12 -114.61)"/><path class="cls-2" d="M1325.14,609.06c13.56,3.68,24.6,9.59,35.13,16.69,1.81,1.21,4.16,4.83,6.17,1.73,1.75-2.7-2.14-4.08-4.06-5.39-20.1-13.67-41.79-22.18-68-19.87,14.23-11.42,28.28-20.14,45.93-21.16,1.68-.1,4,1,4.1-2s-2.56-2.26-4.09-2.45a122.58,122.58,0,0,1-39.54-11.7c-1.51-.75-3.64-.92-4.31-3.48,29.33-4.86,56.24-15.63,79.88-33.56,39.4-29.89,66.75-67.78,75.63-117.41,3.8-21.26.85-41.15-11.32-59.55-10.08-15.25-21.82-29.17-33.07-43.49-7.84-10-15.66-20-20.75-31.74-2.27-5.25-4.09-10.64-3.1-17.54,7.19,6.73,13.44,13.36,20.66,18.93,14.31,11,30.36,17.88,47.9,22,23.93,5.65,46.55,14.66,66.69,29.13a67.05,67.05,0,0,1,10.78,9.71c2.56,2.86,2.27,4.21-1.47,5.76a132.44,132.44,0,0,0-25.34,14c-1.47,1-3.38,2.41-1.73,4.38,1.4,1.67,3,0,4.21-.87,31-20.64,65.71-30,102.31-32.21,46.39-2.79,92.22.06,135.44,19.7,5,2.28,9.76,5.16,14.63,7.77,1.66.89,3.89,2.06,4.88.12s-1.33-3-2.93-4a202.11,202.11,0,0,0-28.67-13.88c17.15-23.21,37.18-41.72,66-48,17.85-3.9,35.3-8.64,51.46-17.45a91.47,91.47,0,0,0,22.78-17.46c-2.25,11.32-7.4,20-12.81,28.47-7.33,11.52-16.35,21.73-25.08,32.17-16.9,20.23-27.93,42.76-26.63,69.95.85,17.93,6.73,34.32,15.91,49.48,20.29,33.51,46.47,62,77,86.25,18,14.34,38.81,23.73,61.3,29.13a43.23,43.23,0,0,1,4.36,1.6c-11.31,9.92-24.39,14.57-38.18,17.73a6.56,6.56,0,0,0-1.36.2c-2,1-6.12-.32-5.82,3.07.38,4.35,4.54,1.95,6.68,1.88a171.7,171.7,0,0,1,33.07,1.81,53.06,53.06,0,0,1,17.67,5.65c3.88,2.16,7.25,4.89,8.33,10.47a216.48,216.48,0,0,0-37.47,4.61c-14.51,3.23-28.34,8.13-40.57,16.84-1.5,1.07-2.89,2.29-4.32,3.45s-2.71,2.72-1.66,4.05c1.55,2,3.21.27,4.63-.94,10.76-9.15,23.44-14.27,39.12-18.31-10.06,11-18.53,20.78-27.51,30-43.64,45-92,83.9-148.93,111.05-35.42,16.88-72.31,29.41-111.81,30.81-67,2.39-129.63-14.18-188.31-46.19-53.7-29.28-99.69-68-139.38-114.36C1328.32,613.22,1327.15,611.62,1325.14,609.06Z" transform="translate(-1273.12 -114.61)"/><path class="cls-3" d="M1730,765c36.83-12.65,70.39-30.35,101.86-52.08,43.57-30.09,81.73-66.14,116.14-106.24,3-3.52,6.21-5.61,11-6.22,8.93-1.14,17.82-2.67,26.84-2.32,4.38.16,5.21-1.75,4.43-5.4-1.6-7.53-6.86-11.85-13.42-14.77-8.75-3.89-18.15-5.14-27.59-6-1.93-.18-3.87-.19-7.61-.37,12.64-5.84,23.85-10.74,31.69-21-1.26-1.76-3.11-1.76-4.79-2.09-31.64-6.28-58.64-21.42-82.43-42.87-3.86-3.48-4.29-5.92,0-9.07,1.84-1.35,3.39-3,5.63-3.89,30.14-11.55,61.27-16,93.09-10.36,35.83,6.3,52.92,31.49,46.8,68.85C2021.18,615,1994.21,670.52,1946.32,715a198,198,0,0,1-29.74,22.58c-2.29,1.44-4.33,3.44-7.63,3.85-2-16.27-3.46-32.55-8.47-48.17-.78-2.4-1.7-4.77-2.48-7.17-.59-1.8-1.26-4.15-3.46-3.45s-1.21,3.08-.59,4.7c6,15.88,8.79,32.49,10,49.3,2.39,34.42,2.83,68.81-9,101.95-10.14,28.32-25,34.15-51.82,20.88-23.62-11.69-43.66-28.37-63.23-45.65C1762.53,798.5,1746.2,782.24,1730,765Z" transform="translate(-1273.12 -114.61)"/><path class="cls-4" d="M1814.9,402.78c-3.74-10.69-4.79-20.22,1.15-30.23a133,133,0,0,1,43.73-45.36c2.72-1.72,5.61-3.18,8.35-4.88,1.83-1.13,5.34-2.08,3.82-4.63-1.36-2.29-4.25-.07-6.16,1-19.53,10.72-35.89,25-48.31,43.59-1.66,2.48-3.22,5-5.59,8.72,1.54-11.54,5.41-20.77,10.28-29.69,8-14.68,19.3-26.94,29.49-40,7.09-9.09,13.76-18.46,18.71-28.94,2.74-5.78,5-11.7,5.55-18.15.79.13,1.42,0,1.63.29C1899.38,281,1919,309,1927.78,342.63c9.67,37.21-3,68.5-29.24,95-12.09,12.22-26.39,21.5-41.83,29.06-3.35,1.65-5.51,1.82-8.17-1.44-12-14.72-22.38-30.35-29.56-48-2.33-5.73-2-10.25,1.73-15.32,13.6-18.36,31.62-30.63,52.29-39.57,2.37-1,7.37-1.16,5.81-4.89-1.22-2.93-4.92.06-7.25,1C1848.8,367.94,1829.24,381.64,1814.9,402.78Z" transform="translate(-1273.12 -114.61)"/><path class="cls-4" d="M1445.85,418.89c-7.8-11.39-15.87-21.13-25.47-29.5a120.73,120.73,0,0,0-42.27-24.32c-2-.66-4.94-2.63-5.85.32s2.83,3.05,4.74,3.72c27.47,9.48,48.42,27.07,64.38,51.06,2.35,3.54,3,6.73,1.59,10.84-5.73,16.43-13.37,31.81-24,45.67-1.6,2.09-2.7,4.56-6.56,2.91-29.18-12.49-54-30-69-59-12-23.08-11.67-47.52-7.17-72.28,5.92-32.52,20.31-60.93,42.34-86.88,3.74,24,19.33,40.33,33,57.72,12.65,16.13,26.23,31.62,33.41,51.29,1.63,4.49,3.44,9,3.45,15.11-7-8.61-13.37-16.45-20.66-23.43a158.33,158.33,0,0,0-45.58-30.87c-1.84-.81-4.68-3.31-5.93-.19-1.11,2.77,2.41,3.2,4.33,4.07,24.72,11.16,44.36,28.41,61.59,49.19C1451.42,395.42,1448.79,406.2,1445.85,418.89Z" transform="translate(-1273.12 -114.61)"/><path class="cls-2" d="M1755.29,248.67c-2-4.19-3.34-7.32-4.88-10.35-12-23.52-31.06-30.95-55.85-21.69-22.62,8.45-37.47,25.48-49,45.69-3.24,5.65-5.62,8.52-12.79,5.91-7.71-2.81-14.87.74-21.35,5.83-8.81-15.65-18.53-30.42-32.5-41.84-1.83-1.49-2.2-3.38-2-5.56.78-9.47,2.49-18.76,6.47-27.42,8.07-17.6,21.92-26.14,41.29-25.36,17.28.7,34.38,4.09,51.75,3.33a104,104,0,0,0,11.05-.62c20-3.11,30.48-14.65,32.71-36a131.59,131.59,0,0,0,.72-15.88c-.07-4,.94-5.58,5.12-4.29,15.63,4.82,28.27,13.69,36.11,28.17,5.06,9.33,1.64,19.46.49,29.19-.48,4-2.35,7.91-3.49,11.89-.48,1.71-3.16,3.94.11,5.11,2.81,1,3.1-2.18,3.86-3.85a59.1,59.1,0,0,0,4.41-16.62c.37-2.62-.25-5.53,2.28-8.49C1775.49,195.32,1775.35,223,1755.29,248.67Z" transform="translate(-1273.12 -114.61)"/><path class="cls-3" d="M1478.54,740.35c-14.71,7.12-29.92,13.43-45.32,19.26-23.29,8.81-46.7,17.25-71.82,19.21-.46,0-.92.12-1.38.14-28.59,1.46-40.55-9.92-41.8-38.61-1.3-30.11,8.41-57.61,18.9-85,2.12-5.53,3.19-14.33,7.6-15.35,4.67-1.08,8.51,7,12.71,11.13,35.29,34.26,74,63.75,118,86.18C1476.52,737.89,1478.16,738.07,1478.54,740.35Z" transform="translate(-1273.12 -114.61)"/><path class="cls-3" d="M1323.45,373.71c3.55-.33,6-.31,6,4.76,0,47.39,16.62,89.6,40.84,129.37,8.48,13.93,8.53,13.88-5.72,23a178.23,178.23,0,0,1-69.85,26.54c-3.76.57-5.45-.17-6.4-3.82-11.94-45.69-15.34-91.71-4.72-138.11,2.85-12.46,8-24.06,17.87-32.89A34.25,34.25,0,0,1,1323.45,373.71Z" transform="translate(-1273.12 -114.61)"/><path class="cls-3" d="M1757.51,293.2c2.08,7.57-.92,13-7.3,17.93a98.92,98.92,0,0,0-20.46,22.38c-2.07,3-4.12,3.62-7.46,2.53-19-6.17-38.49-9.29-58.3-10.69-3.64-.25-5.44-1.18-5.55-5.1-.15-5.05-.69-10.11-1.3-15.13-.35-2.84,1.59-3.64,3.45-4.41,12.48-5.12,25.23-7.11,38.42-2.79,1.9.62,4.6,2.35,5.52.14,1.26-3.05-2.26-3.51-4.24-4.16-13.3-4.36-26.4-3.06-39.15,2.12-3.85,1.57-5.61,1.43-6.51-3.2-1.05-5.43-3-10.91-6.87-14.91-3.47-3.59-3-6.31-.76-10.11,8.33-14.25,17.91-27.41,31.22-37.47a68.82,68.82,0,0,1,27.43-12.5c14.12-3,25.37,1.26,34.33,12.33,10.09,12.48,14,27.34,16.14,42.76C1757,279.52,1758.24,286.15,1757.51,293.2Z" transform="translate(-1273.12 -114.61)"/><path class="cls-3" d="M1600.23,300.36c-13.12-7.24-26.43-8.25-40.19-5.75-1.86.33-5-.11-4.44,2.9.55,2.75,3.55,1.52,5.3,1.18a57,57,0,0,1,30.67,2.22c5.77,2.09,8.92,5,7.68,12.24-2,11.87-1.44,11.88-13.27,13.83a236.9,236.9,0,0,0-44.13,11.25c-3.38,1.26-5.51,1.55-8.09-1.85-6.22-8.2-14.66-13.95-23.44-19.17-2.1-1.25-4.64-2-4.92-5.21-1.87-21.69-2.78-43.34,4-64.46,7.59-23.56,24.23-31.62,47.55-23.12,15.32,5.59,26.44,16.53,36.21,29.08,1.13,1.46,2.13,3,3.24,4.49,7.74,10.23,15,20.44,6.12,33.81C1601.1,294,1601.07,297.07,1600.23,300.36Z" transform="translate(-1273.12 -114.61)"/><path class="cls-3" d="M1719.17,769.25c-27.93,22.5-58.11,39.41-94.8,41.2-17.06.83-32.81-3.9-47.85-11.49-19.88-10-37.13-23.57-52.71-39.55C1588.17,779.36,1652.85,788.84,1719.17,769.25Z" transform="translate(-1273.12 -114.61)"/><path class="cls-3" d="M1630,323.61c-7.58.34-15.17.53-22.74,1.1-2.63.19-4-.25-4-3.06,0-13.43.66-26.77,7.5-38.81,8.53-15,25.93-15.15,34.91-.3,7.17,11.86,8,25.21,8.46,38.61.09,3-1.74,3.08-4.11,3-6.68-.15-13.35-.05-20-.05Z" transform="translate(-1273.12 -114.61)"/><path class="cls-2" d="M1339.53,426.65c2-.34,2.66.72,3.23,1.68,15.29,25.57,38.12,42.08,64.91,53.67,4.34,1.88,5.12,3,1.82,6.81-7.6,8.68-15.37,17.18-23.44,25.42-3.55,3.63-5,2.57-7.42-1.1C1362.29,488.43,1352.06,466.11,1339.53,426.65Z" transform="translate(-1273.12 -114.61)"/><path class="cls-2" d="M1854.62,472.58c34.26-16.69,62-39.14,76.41-75.6-.17,2.49-.2,5-.53,7.47-.37,2.74-.91,5.46-1.53,8.16-7.36,32.23-24.22,59-47.24,82.24-2.16,2.18-3.59,3-6,.3C1868.94,487.66,1861.94,480.38,1854.62,472.58Z" transform="translate(-1273.12 -114.61)"/><path class="cls-5" d="M1335.53,645.69a218.93,218.93,0,0,1-25.47-38.59c4.69-1.42,7.82.12,10.55,3.46,4.79,5.87,9.76,11.61,14.7,17.36C1342.07,635.79,1342.09,635.77,1335.53,645.69Z" transform="translate(-1273.12 -114.61)"/><path class="cls-6" d="M1291.73,565.12a132.4,132.4,0,0,0,35.12,13.34c-9,3.68-16.15,7-22.83,11.1-2.57,1.58-3.07-1-3.69-2.56C1297.6,580.24,1295,573.44,1291.73,565.12Z" transform="translate(-1273.12 -114.61)"/><path class="cls-1" d="M1610.89,706.36c-2.2-5.19-2.55-10.68-3-16.22-.93-12.09-5.91-21.68-17.64-26.66a42.15,42.15,0,0,1-12.45-8.58c-3.31-3.14-6.63-7.28-9.82.19-.66,1.54-2.8,1.9-2.94.17-.58-7.24-6.11-4.8-9.67-4.86-31.25-.52-61.49,4.62-90.39,16.87-.42.18-.88.29-1.29.5-1.47.78-3.29,1.68-4.23-.2-1.2-2.41,1.22-3.16,2.76-3.83a197.64,197.64,0,0,1,34-11.23c21.22-4.91,42.7-7.61,64.5-5.88,5.16.41,5.68-2.79,6.54-6,1.22-4.63-2.79-3.29-4.79-3.64-41.48-7.19-82.63-6-123.36,5.07-.67.18-1.32.43-2,.56-1.53.27-3.71,1.06-4.22-.74-.61-2.14,1.41-2.88,3.36-3.45a223.48,223.48,0,0,1,31-6.79c32.42-4.67,64.81-4.56,97.11,1.3a17.44,17.44,0,0,1,2.73.41c2.24.83,3.59-.18,4.37-2.1,1.31-3.2-1.85-2.68-3.1-3.11-20-6.82-40.72-9.76-61.73-11.09-21.27-1.36-42.43,0-63.55,2.41-2.12.25-5.21,1.92-5.55-1.49-.25-2.47,3.08-2.35,5-2.58,43-5.15,85.61-4.69,127.35,8.68,2.38.76,5,2.87,7.47-.25.34-.43,2.37-.15,2.37-.14.36,7,7.28,5.83,10.85,8.78,1.07.88,2.62,1.47,1.81,3.16-1,2.19-2.64,1-4.08.35-3.16-1.4-6.31-2.83-9.5-4.15a2.44,2.44,0,0,0-3.41,1.36c-.62,1.21.1,1.77.91,2.14,2.29,1,7.09.26,5.83,3.91-1,2.88-5.36-.16-8.21.32-.19,0-.36.23-.73.49,1.36,5.45,4.36,8.54,10.49,8.59,2.1,0,6.34-.27,5.94,3-.45,3.57-4.13,1.09-7.47,1.26,9,8.57,19,10.63,30,8.74,5-.86,9.65-3,14.43-4.63,5.42-1.85,6.73-5.22,6.55-10.41-.12-3.6-.36-5.95-4.72-6.83-5-1-9.31-4-12.92-7.67-4.48-4.6-4-9,1.32-12.68,8.7-6.1,35-6,43.46.06,4.58,3.31,3.62,7.2.8,10.76-4.76,6-11.19,9.44-18.7,11-1.9.38-5.56-1.16-5,2.69s-2.84,8.45,2.08,11.37c15.71,9.32,37.71,10.75,52.53-5.06a3.83,3.83,0,0,0-1-.65c-2.57-.76-7.1,2.37-7.46-1.78-.26-3.1,4.45-2,7-2.53,4.31-1,9.58,0,11.29-6.43-3.72-.8-7,1.32-10.55,1.5-1.22.07-2.47.09-2.91-1.12-.62-1.71.68-2.55,2.07-2.93,2.81-.75,5.67-1.36,8.78-2.09-3-5.48-6.5-1.75-9.67-1.16-2.05.38-4.78,3.1-6,.07s2.8-4,4.38-3.86c4.78.4.88-7.3,5.47-5.65,2.9,1,5.35,1.91,8.42.89a333.45,333.45,0,0,1,63.27-14.3c22.13-2.76,44.17-2.94,66,2.21,1.57.37,3.1.91,4.67,1.25,1.85.41,3.28,1.68,2.65,3.3s-2.84,1.13-4.3.71a127,127,0,0,0-25.15-4.47c-35.84-3-70.18,4.57-104.17,14.63-1.1.33-3.18.39-2.5,2.38.61,1.78,2,3.14,4.22,2.77,3.87-.65,7.72-1.39,11.6-1.93,33.28-4.65,66.55-7.49,99.52,2,4.61,1.34,9,3.48,13.47,5.31,1.56.64,3.24,1.81,2.43,3.56s-2.79,1.07-4.23.36c-20.25-10.05-42.07-11.4-64.07-11.27-17.57.11-35,2.17-52.28,5.11-1.77.29-5.38-.73-5.08,2.87.25,3.18,2.46,4.19,5.86,4.05,22.18-.91,44.31-.52,66.19,3.8,14.07,2.78,27.74,6.79,40.4,13.7,1.8,1,5.33,1.56,3.58,4.61-1.51,2.66-3.71,0-5.3-.81-24.32-12.72-50.68-16.37-77.59-17.4-8.29-.32-16.62.23-24.93.09-4-.07-6.41.54-4.81,5.31a10.32,10.32,0,0,1,.23,3.43c-.05,1.63-.18,3.56-2.32,3.51-1.77,0-1.6-1.84-1.83-3.19-.46-2.77.76-6.57-2.54-7.84-4-1.53-6,2.3-8.51,4.58-3.75,3.47-7.71,6.83-12.37,8.78-13.56,5.7-18.95,16.77-20.57,30.34-.71,6-1.78,11.8-4.36,17.27-2.17.49-2.9-1.35-4.06-2.5-9.84-12.57-25.83-13.67-39.06-2.65C1614.38,704.91,1613.18,706.83,1610.89,706.36Z" transform="translate(-1273.12 -114.61)"/><path class="cls-1" d="M1814.63,530.73c9.08,6.72,6.38,13.21,2.65,20.17-13.19,24.66-30.94,44-58.82,52a89.14,89.14,0,0,1-45.06.88c-2.17-.5-4.4-.74-4.56-4-1.45-30.39,4.71-69.06,37.33-88.92,3.26-2,6.64-3.76,10.45-5.92-6.19-3.73-11.63-1.14-16.88.49s-10.5,4-16.11,5.49c3.21-6.23,8.84-9.36,14.9-11.65a36.36,36.36,0,0,1,23.11-1.17c12.47,3.64,23.59,2.23,33.51-6.47a27.72,27.72,0,0,1,3.66-2.15c-.67,6.72-5,10.14-9.36,14.4,10.84,1.19,17.51-6.15,26.79-10.21-1.9,8.43-8.64,11.12-14.43,16,12.21-.07,21.19-5.26,29.87-11.56,1.08,6.86-.06,8.61-12.64,19.5,10.32,1.27,19.12-2.54,29.49-6.07C1841.88,527.38,1829.32,529.34,1814.63,530.73Z" transform="translate(-1273.12 -114.61)"/><path class="cls-1" d="M1455.46,540.45c-13.84-1.53-26.49-2.3-32.93-17.81,10,2.81,18.5,6.46,28.68,4.39-6.76-4.82-13.66-9-14.22-19.43,9.64,7.24,19,11.45,31.67,11.71-5.93-3.59-10.44-6.35-13.65-10.56-.83-1.09-2.83-2.34-1-4,1.39-1.32,2.58.37,3.58,1,6.49,3.9,12.92,7.84,21.78,7.8-3.71-4.56-8.69-7.42-9.51-13.19,2.39-1.55,3.8.69,5.19,1.82,8.94,7.25,18.82,7.6,29.32,4.47,15.64-4.67,30.88-.68,39.85,10.89-6.38.09-10.87-3.91-16.17-5.07s-10.52-2.71-17.36.12c10.82,4.86,19.49,10.67,26.91,18.22,13.55,13.79,18.66,31.29,21.88,49.61,1.08,6.13,1,12.41,1.68,18.56.75,6.71-1.62,9.31-8,10.57-38.31,7.5-68.28-5.4-91-36.53-3.25-4.46-5.85-9.37-8.86-14C1449.22,552.77,1447.75,546.77,1455.46,540.45Z" transform="translate(-1273.12 -114.61)"/><path class="cls-7" d="M1749,412c5.31-.08,8.82,2.17,12,4.87,9.76,8.3,17,18.64,23.81,29.39,1.12,1.79,2.27,3.94.14,5.52-2.62,2-4.12-.47-5.52-2.21a215.69,215.69,0,0,0-20.87-23c-7.19-6.69-8.27-6.83-16.63-1.84-1.58.94-3.09,2-4.63,3-2.17,1.39-4.72,3.18-6.75.63s.26-4.59,1.87-6.61C1736.87,416.05,1742.41,412.32,1749,412Z" transform="translate(-1273.12 -114.61)"/><path class="cls-8" d="M1514.93,412.65a22.61,22.61,0,0,1,17,11c1,1.53,1.17,2.93-.2,4.36a3.14,3.14,0,0,1-4.34.48l-1.18-.73c-13.2-7.85-12.51-9.12-24.76,4.85-5,5.71-9.44,11.91-14.16,17.86-1.47,1.85-3.18,3.81-5.72,2s-.6-3.82.36-5.47c6-10.35,12.24-20.59,21.12-28.86C1506.34,415.14,1509.83,412.59,1514.93,412.65Z" transform="translate(-1273.12 -114.61)"/><path class="cls-9" d="M1610.89,706.36c1.33-.78,1.67-2.87,3.66-2.78,3.23,9.24,8.33,16.67,19,17.47s17.76-5,22.37-14.24c.09-.18.36-.28.54-.42l2.65,2.75c-4.54,11.61-13.16,17.25-25.49,16.68C1622.48,725.3,1614.67,718.62,1610.89,706.36Z" transform="translate(-1273.12 -114.61)"/><path class="cls-10" d="M1656.5,706.39c-2.15,9.61-9.18,15.56-19.48,16.48a22,22,0,0,1-22.18-13.28,9,9,0,0,1-.29-6C1626.67,690.14,1647.82,691.55,1656.5,706.39Z" transform="translate(-1273.12 -114.61)"/><path class="cls-11" d="M1638.13,617.72a41.17,41.17,0,0,1,18.21,2.9c4.34,1.82,5.46,4.42,2.12,8.44-9.7,11.69-29.4,12.54-40,1.61-3.82-3.92-3.4-7.19,1.61-9.78C1625.69,618,1631.87,617.46,1638.13,617.72Z" transform="translate(-1273.12 -114.61)"/><path class="cls-12" d="M1769.17,593.34c15-27.52,11.65-52.7-2-77.94,19,.42,34.08,7.26,45.71,21.53,2.4,3,1.94,5.78.32,8.94C1803.27,565.13,1789.66,581,1769.17,593.34Z" transform="translate(-1273.12 -114.61)"/><path class="cls-13" d="M1754.2,533.84c5.6-2.38,1.39-6.77,1.8-10.12s.24-5.58,4.24-6.47c2.8-.62,4.11,0,5.61,2.29,13.83,20.81,13.78,52.71-.19,73.55a12.21,12.21,0,0,1-7.56,5.45c-13.49,3.51-26.93,3-40.49.6-4.06-.72-5.24-2.52-4.64-6.57.85-5.69,1.43-11.41,3.41-17.28,2.21,4.21,3.92,8.32,6.36,12,4.53,6.77,11.25,9.27,19.22,8.36,7.4-.86,10.22-6.58,12.26-12.58a60.26,60.26,0,0,0,3.3-23.81,3.15,3.15,0,0,1,.14-2C1763.35,544.84,1763.1,543.11,1754.2,533.84Z" transform="translate(-1273.12 -114.61)"/><path class="cls-14" d="M1754.2,533.84c10.56,2.82,12.31,16.18,3.32,25.38-6.34.15-8.19-4.47-9-9.3C1747.35,543.68,1747.37,537.44,1754.2,533.84Z" transform="translate(-1273.12 -114.61)"/><path class="cls-12" d="M1501.37,523.44c-13.07,25.06-16,49.37-2.06,74.14-2,1.43-3.29-.56-4.56-1.37-16.53-10.54-28.59-25.08-37.65-42.32-1.44-2.75-1.48-4.92.47-7.52C1468.34,532,1482.62,524.5,1501.37,523.44Z" transform="translate(-1273.12 -114.61)"/><path class="cls-13" d="M1511.82,560.64c.21,9.2.68,18.41,3.72,27.18,2.31,6.65,5.29,13.2,13.65,13.72,8.64.55,15.07-3.4,19.11-11,1.38-2.6,2.44-5.37,3.69-8.17,7,18.71,6,20.54-12.63,23.53-9.23,1.49-18.36.74-27.46-1a11.93,11.93,0,0,1-8.1-5.76c-15.29-23.59-13.43-47.36-1.24-71.41,1.51-3,3.56-3.1,6.25-2.47s4,1.94,3.57,4.83a48.27,48.27,0,0,0-.15,5.52C1506.62,543.82,1507.4,552.2,1511.82,560.64Z" transform="translate(-1273.12 -114.61)"/><path class="cls-15" d="M1511.82,560.64c-7.79-7.48-7.61-18.39.41-25.09,8.33.8,8.39,7.17,8.32,13.07S1519.79,560.33,1511.82,560.64Z" transform="translate(-1273.12 -114.61)"/></svg>