<svg width="24" height="24" viewBox="0 0 24 24" fill="none" xmlns="http://www.w3.org/2000/svg">
<path d="M0 5C0 2.23858 2.23858 0 5 0H19C21.7614 0 24 2.23858 24 5V19C24 21.7614 21.7614 24 19 24H5C2.23858 24 0 21.7614 0 19V5Z" fill="#179DE3"/>
<path d="M0 10.24C0 6.65566 0 4.8635 0.697558 3.49446C1.31115 2.29022 2.29022 1.31115 3.49446 0.697558C4.8635 0 6.65566 0 10.24 0H13.76C17.3443 0 19.1365 0 20.5055 0.697558C21.7098 1.31115 22.6889 2.29022 23.3024 3.49446C24 4.8635 24 6.65566 24 10.24V13.76C24 17.3443 24 19.1365 23.3024 20.5055C22.6889 21.7098 21.7098 22.6889 20.5055 23.3024C19.1365 24 17.3443 24 13.76 24H10.24C6.65566 24 4.8635 24 3.49446 23.3024C2.29022 22.6889 1.31115 21.7098 0.697558 20.5055C0 19.1365 0 17.3443 0 13.76V10.24Z" fill="#179DE3"/>
<path fill-rule="evenodd" clip-rule="evenodd" d="M5.6001 5.6001H12.0001V18.4001H5.6001V5.6001ZM12 18.4005L18.4 12.0005V18.4005H12ZM18.4 8.00049C17.2887 7.58808 16.4124 6.71177 16 5.60049C15.5873 6.71123 14.7108 7.58806 13.6 8.00049C14.7109 8.41347 15.587 9.28958 16 10.4005C16.4124 9.28965 17.2893 8.41321 18.4 8.00049Z" fill="white"/>
</svg>
