<?xml version="1.0" encoding="UTF-8" standalone="no"?>
<!DOCTYPE svg PUBLIC "-//W3C//DTD SVG 1.1//EN" "http://www.w3.org/Graphics/SVG/1.1/DTD/svg11.dtd">
<svg width="100%" height="100%" viewBox="0 0 517 609" version="1.1" xmlns="http://www.w3.org/2000/svg" xmlns:xlink="http://www.w3.org/1999/xlink" xml:space="preserve" xmlns:serif="http://www.serif.com/" style="fill-rule:evenodd;clip-rule:evenodd;stroke-linejoin:round;stroke-miterlimit:2;">
    <g transform="matrix(1,0,0,1,-0.00213126,-0.107952)">
        <ellipse cx="263.221" cy="474.628" rx="152.271" ry="134.265" style="fill:rgb(50,58,83);"/>
    </g>
    <g transform="matrix(1,0,0,1,-0.00213126,-0.107952)">
        <path d="M263.221,608.893C179.126,608.893 110.955,548.783 110.955,474.632C110.955,400.476 179.128,340.361 263.221,340.361L263.221,608.893Z" style="fill:rgb(239,241,244);fill-rule:nonzero;"/>
    </g>
    <g transform="matrix(1,0,0,1,-0.00213126,-0.107952)">
        <path d="M441.468,78.987C463.576,88.61 485.728,98.135 507.76,107.922C512.947,110.224 516.789,114.091 516.726,120.443C515.629,122.513 514.418,124.444 511.676,124.426C508.84,123.93 506.502,125.075 504.3,126.679C502.552,127.677 500.896,129.069 498.663,128.061C495.866,122.889 495.92,122.984 490.62,125.945C486.702,128.128 483.22,131.301 478.434,131.679C469.918,129.557 461.372,127.518 453.052,124.654C448.079,122.942 447.347,121.656 450.495,117.683C453.067,114.438 451.665,113.153 448.892,111.787C445.744,110.234 442.672,108.508 439.318,107.407C402.581,90.59 365.874,73.707 329.054,57.08C327.444,56.353 325.938,55.141 324.274,54.862C321.608,54.41 319.415,48.893 316.17,53.943C308.673,52.309 302.109,48.37 295.274,45.186C283.762,39.832 271.928,35.159 260.855,28.901C259.023,26.813 256.859,26.952 254.569,28.003C247.993,31.288 241.094,33.858 234.646,37.393C228.324,39.203 223.119,43.867 216.362,44.573C215.139,44.416 213.906,44.344 212.673,44.237C206.17,43.705 204.249,39.743 207.588,34.068C212.465,25.779 220.26,20.898 228.323,16.452C236.054,12.187 243.963,8.258 252.114,4.819C256.671,2.892 261.025,3.043 265.456,4.936C299.375,19.472 333.045,34.593 366.997,49.066C390.851,59.229 414.515,69.897 438.92,78.731C439.74,79.037 440.57,79.381 441.468,78.987Z" style="fill:rgb(210,226,237);fill-rule:nonzero;"/>
    </g>
    <g transform="matrix(1,0,0,1,-0.00213126,-0.107952)">
        <path d="M3.109,159.612C0.492,154.723 2.347,149.31 1.336,144.129C-0.06,136.952 0.076,129.438 0.003,122.06C-0.06,115.514 3.023,110.479 9.127,107.803C30.566,98.394 52.071,89.135 73.521,79.752C94.636,70.514 115.716,61.187 136.811,51.904C154.534,44.097 172.266,36.31 190.007,28.543C190.938,28.136 192.061,28.164 193.094,27.989C192.234,33.048 187.559,34.018 184.069,35.867C172.69,41.91 161.148,47.649 149.626,53.415C146.829,54.816 142.5,56.284 142.621,59.12C142.744,62.323 147.579,62.09 150.289,63.485C153.589,65.184 157.078,64.812 160.656,64.28C163.185,63.901 166.316,62.493 167.832,66.261C166.806,67.837 165.093,68.435 163.535,69.211C137.38,82.24 110.502,93.707 83.992,105.971C77.921,108.775 71.973,111.844 65.597,113.954C61.097,118.352 55.916,117.934 50.083,117.157C39.284,115.718 28.336,116.48 17.454,116.774C13.445,116.885 10.441,118.852 8.937,122.743C4.838,126.44 5.503,131.207 6.046,135.906C6.843,142.817 7.175,149.757 7.242,156.717C6.502,158.587 5.187,159.648 3.109,159.612Z" style="fill:rgb(235,240,245);fill-rule:nonzero;"/>
    </g>
    <g transform="matrix(1,0,0,1,-0.00213126,-0.107952)">
        <path d="M167.625,66.12C165.801,64.445 163.389,64.711 161.609,65.382C153.793,68.315 147.673,63.488 140.986,61.299C138.726,60.56 139.021,59.068 140.588,57.781C142.351,56.336 144.08,54.738 146.083,53.711C158.295,47.457 170.613,41.398 182.835,35.161C186.563,33.258 190.297,31.27 193.097,27.999C199.277,23.83 206.393,21.637 213.104,18.602C225.789,12.878 238.764,7.794 251.349,1.873C256.686,-0.64 261.187,-0.34 266.339,1.953C296.438,15.356 326.58,28.659 356.767,41.862C383.232,53.451 409.765,64.871 436.258,76.384C438.038,77.161 439.737,78.114 441.472,78.99C439.62,81.108 437.811,79.217 436.152,78.744C421.849,74.674 408.724,67.678 394.995,62.177C356.378,46.723 318.693,29.126 280.462,12.795C275.436,10.65 270.372,8.602 265.419,6.305C260.371,3.959 255.619,4.418 250.701,6.796C238.637,12.632 226.359,18.082 215.679,26.362C212.135,29.105 209.86,32.985 207.564,36.703C205.886,39.421 208.117,42.568 211.421,42.872C213.121,43.025 214.994,42.297 216.449,43.793C215.947,46.014 214.003,46.666 212.28,47.433C199.311,53.209 186.463,59.233 173.589,65.218C171.737,66.071 169.828,67.272 167.625,66.12Z" style="fill:rgb(225,234,241);fill-rule:nonzero;"/>
    </g>
    <g transform="matrix(1,0,0,1,-0.00213126,-0.107952)">
        <path d="M22.215,397.36C20.48,392.178 20.859,386.707 20.06,381.389C18.688,364.233 17.286,347.076 15.962,329.913C15.148,319.398 14.553,308.863 13.701,298.349C12.412,282.424 10.731,266.523 9.713,250.583C9.073,240.579 8.183,230.601 7.407,220.615C6.118,203.985 5.126,187.328 3.285,170.741C2.878,167.066 3.152,163.318 3.115,159.609C4.149,158.889 5.177,158.163 6.211,157.445C8.322,158.665 8.732,160.763 8.86,162.902C10.003,182.077 11.781,201.201 13.296,220.339C14.887,240.359 16.581,260.371 18.131,280.391C19.321,295.843 20.887,311.269 21.641,326.755C23.226,345.032 24.519,363.339 26.027,381.632C26.407,386.234 29.949,388.544 32.312,391.735C33.24,394.058 34.776,396.206 34.414,398.911C32.836,400.857 31.755,399.001 30.506,398.413C29.052,397.265 27.472,396.28 26.137,394.984C25.659,394.577 25.197,394.156 24.641,393.886C22.664,394.252 23.718,396.707 22.215,397.36Z" style="fill:rgb(219,224,232);fill-rule:nonzero;"/>
    </g>
    <g transform="matrix(1,0,0,1,-0.00213126,-0.107952)">
        <path d="M513.818,165.94C513.097,175.855 512.378,185.774 511.655,195.695C514.344,200.243 511.311,204.929 512.003,209.524C511.085,215.098 511.106,220.755 510.544,226.36C509.508,234.305 508.899,242.299 508.72,250.31C508.43,252.5 507.942,254.622 506.602,256.452C505.038,257.672 503.45,258.686 501.542,257.051C500.564,250.521 501.911,244.096 502.412,237.623C503.044,221.323 504.882,205.11 506.116,188.855C506.448,184.475 506.813,180.118 506.786,175.727C507.967,162.453 509.276,149.176 510.035,135.863C510.095,134.805 510.316,133.773 510.789,132.828C513.997,130.383 513.826,134.942 515.717,135.229C516.126,145.533 514.263,155.692 513.818,165.94Z" style="fill:rgb(141,158,189);fill-rule:nonzero;"/>
    </g>
    <g transform="matrix(1,0,0,1,-0.00213126,-0.107952)">
        <path d="M515.717,135.232C511.5,137.243 513.036,133.61 512.531,131.981C510.643,129.336 510.614,126.478 511.55,123.508C513.943,123.61 514.816,121.144 516.726,120.448C516.428,125.376 517.884,130.43 515.717,135.232Z" style="fill:rgb(181,194,212);fill-rule:nonzero;"/>
    </g>
    <g transform="matrix(1,0,0,1,-0.00213126,-0.107952)">
        <path d="M234.279,36.322L254.539,26.844C256.899,26.21 259.051,26.887 261.148,27.905L316.269,53.239C324.319,53.79 330.729,58.648 337.723,61.793C370.547,76.581 403.173,91.83 436.027,106.568C438.059,107.669 440.109,108.752 442.225,109.703C443.346,110.214 444.463,110.723 445.572,111.248C447.723,112.262 450.94,112.521 451.002,115.47C451.05,117.985 448.172,118.769 446.25,119.894C435.362,126.296 424.349,132.493 413.497,138.954C411.244,139.939 409.154,141.216 407.103,142.558C406.471,142.964 405.815,143.329 405.152,143.682C375.915,160.596 346.622,177.413 317.47,194.472C300.264,204.185 283.184,214.131 266.133,224.116C260.83,227.225 256.145,227.273 250.778,224.216C231.768,213.388 213.133,201.91 193.847,191.577C181.328,184.441 168.429,177.967 156.427,169.936C143.706,161.944 130.509,154.773 117.542,147.211C101.365,137.775 85.117,128.46 68.893,119.105C67.246,118.155 65.287,117.376 65.461,114.896C66.618,113.149 68.558,112.666 70.313,111.876C89.908,103.067 109.382,93.997 128.933,85.092C156.348,72.599 183.733,60.048 211.137,47.535C218.921,43.978 227.081,41.114 234.279,36.322Z" style="fill:rgb(39,51,78);fill-rule:nonzero;"/>
    </g>
    <g transform="matrix(1,0,0,1,-0.00213126,-0.107952)">
        <path d="M157.144,168.836L194.16,190.536C198.489,195.525 201.327,201.457 204.482,207.162C209.074,215.468 215.263,221.762 224.081,225.72C233.583,229.989 242.906,234.614 252.562,238.595C258.796,241.161 264.942,241.415 271.234,240.781C277.016,240.195 282.877,239.231 288.329,237.196C304.344,231.227 320.521,225.817 335.464,217.06C357.103,204.381 378.849,191.872 400.276,178.83C402.083,177.729 404.023,176.815 405.214,174.938C410.889,169.58 418.093,166.576 424.586,162.475C427.831,160.42 431.221,158.571 434.531,156.599C447.768,148.641 461.053,140.758 474.278,132.775C475.627,131.961 476.986,131.119 478.621,130.983C483.184,128.526 487.716,125.989 492.325,123.616C497.438,120.977 498.297,121.555 498.752,127.667C497.361,131.503 493.741,132.928 490.692,134.84C472.055,146.534 452.953,157.472 434.329,169.191C379.436,201.648 325.127,235.072 270.522,268.005C266.211,270.609 264.347,273.689 264.45,278.693C264.688,290.169 264.493,301.659 264.56,313.147C264.581,314.701 264.338,316.247 263.841,317.719C262.243,323.697 261.106,329.714 262.129,335.922C262.39,337.504 262.445,339.088 262.515,340.674C264.065,374.58 263.536,408.515 263.582,442.441C263.617,462.781 263.579,483.115 263.603,503.447C263.568,514.116 263.579,524.787 263.603,535.452C263.608,537.553 263.81,539.664 262.59,541.558C259.384,543.947 256.58,543.19 254.02,540.466C253.05,538.699 252.959,536.754 252.959,534.815C252.965,504.659 252.766,474.507 253.034,444.358C254.808,424.57 256.15,404.787 254.435,384.887C253.677,376.115 254.231,367.262 254.243,358.451C254.251,352.967 253.258,347.612 252.407,342.239C251.398,329.232 252.138,316.206 251.952,303.189C251.844,295.447 251.936,287.7 251.928,279.95C251.925,276.935 251.808,273.951 250.096,271.318C248.525,267.507 245.206,265.937 241.605,264.731C231.376,260.49 222.807,253.34 212.955,248.434C188.904,233.462 164.555,218.989 140.364,204.245C118.137,190.775 95.993,177.159 73.632,163.907C61.451,156.134 48.981,148.838 36.655,141.304C33.55,139.373 30.381,137.558 27.306,135.587C25.734,134.578 23.802,133.826 23.698,131.494C25.875,126.563 27.276,125.974 32.671,128.355C43.823,133.275 54.288,139.512 64.807,145.621C69.43,148.304 74.133,150.618 79.591,150.909C80.293,150.949 81.071,150.982 81.652,151.329C90.44,156.668 100.577,158.702 109.829,162.902C112.076,163.923 114.163,165.468 116.698,165.436C127.651,165.334 138.349,168.639 149.346,167.712C152.053,167.493 154.542,168.52 157.144,168.836Z" style="fill:rgb(253,253,254);fill-rule:nonzero;"/>
    </g>
    <g transform="matrix(1,0,0,1,-0.00213126,-0.107952)">
        <path d="M434.029,168.092C449.901,158.346 465.721,148.511 481.675,138.893C487.511,135.375 493.208,131.63 498.752,127.666C500.945,128.149 502.123,125.84 504.093,125.718C505.621,128.385 504.253,130.681 502.617,132.385C496.79,138.443 494.873,146.418 491.75,153.786C490.316,157.168 489.212,160.72 488.215,164.258C486.432,170.59 481.547,174.328 476.997,178.399C476.001,179.921 474.508,180.872 473.007,181.804C430.138,208.522 387.279,235.254 344.419,261.981C343.07,262.822 341.787,263.78 340.208,264.164C337.222,263.647 335.103,267.464 331.893,265.835C330.911,263.687 332.277,262.335 333.761,261.434C342.337,256.232 348.167,248.573 353.169,240.154C361.593,225.973 375.121,217.405 388.354,208.693C398.986,201.693 409.208,194.08 419.099,186.202C425.021,181.485 431.425,176.056 434.029,168.092Z" style="fill:rgb(81,100,148);fill-rule:nonzero;"/>
    </g>
    <g transform="matrix(1,0,0,1,-0.00213126,-0.107952)">
        <path d="M478.624,130.982C472.793,136.124 465.669,139.251 459.144,143.294C451.232,148.198 443.12,152.772 435.092,157.489C420.576,162.294 405.575,161.059 390.675,160.982C388.685,160.971 386.571,160.406 386.081,158.167C385.565,155.82 387.174,154.153 388.941,152.906C394.234,149.153 400.299,146.583 405.296,142.364L406.46,141.665C409.185,141.58 410.929,139.791 412.712,138.067C425.326,130.602 437.939,123.142 450.653,115.628C448.078,112.783 444.062,112.991 441.525,110.548C441.312,109.035 439.597,108.588 439.164,107.231C439.224,107.004 439.296,106.774 439.364,106.549C444.316,106.924 448.14,110.019 452.352,112.101C455.462,113.648 453.9,115.678 452.214,117.598C448.406,121.955 448.638,121.642 454.12,123.63C462.168,126.537 470.785,127.47 478.624,130.982Z" style="fill:rgb(218,231,240);fill-rule:nonzero;"/>
    </g>
    <g transform="matrix(1,0,0,1,-0.00213126,-0.107952)">
        <path d="M476.545,177.7C475.316,175.809 477.222,175.707 478.089,175.294C482.72,173.065 485.101,169.006 486.693,164.49C489.421,156.731 491.92,148.92 495.351,141.4C496.903,138.004 498.235,134.732 501.139,132.285C503.158,130.588 503.457,128.067 504.094,125.718C506.274,123.943 508.286,121.62 511.548,123.506C513.248,126.173 512.421,129.133 512.529,131.981C510.191,137.08 511.437,142.624 510.791,147.934C509.667,157.069 509.34,166.341 508.32,175.531C502.39,190.948 497.586,206.818 490.037,221.6C488.593,224.424 487.12,227.239 485.009,229.634C483.977,230.805 482.836,232.243 481.056,231.694C479.478,231.204 479.535,229.483 479.344,228.123C479.173,226.895 478.706,225.744 478.51,224.523C479.025,212.772 479.975,201.042 480.891,189.321C481.181,185.622 481.631,181.99 480.977,178.337C479.687,176.856 477.915,178.611 476.545,177.7Z" style="fill:rgb(90,110,158);fill-rule:nonzero;"/>
    </g>
    <g transform="matrix(1,0,0,1,-0.00213126,-0.107952)">
        <path d="M435.871,107.78C417.422,99.472 398.941,91.233 380.536,82.837C359.079,73.042 337.689,63.11 316.269,53.235C317.242,50.602 318.479,50.328 321.224,51.595C358.599,68.873 396.062,85.96 433.48,103.136C435.538,104.077 437.793,104.74 439.369,106.541L439.35,106.574C438.414,107.61 437.325,108.224 435.871,107.78Z" style="fill:rgb(236,238,239);fill-rule:nonzero;"/>
    </g>
    <g transform="matrix(1,0,0,1,-0.00213126,-0.107952)">
        <path d="M234.279,36.322C232.373,40.229 228.148,40.661 224.86,42.214C210.056,49.208 195.071,55.806 180.176,62.599C147.658,77.431 115.148,92.283 82.648,107.155C77.044,109.717 71.495,112.401 65.918,115.029C65.19,114.39 65.199,113.688 65.75,112.948C95.053,99.537 124.36,86.13 153.657,72.704C158.338,70.559 162.968,68.318 167.625,66.117C183.901,58.674 200.173,51.228 216.449,43.787C222.393,41.301 228.336,38.811 234.279,36.322Z" style="fill:rgb(45,46,49);fill-rule:nonzero;"/>
    </g>
    <g transform="matrix(1,0,0,1,-0.00213126,-0.107952)">
        <path d="M261.147,27.902C258.801,28.429 256.725,27.286 254.536,26.84C256.998,25.591 259.432,24.519 261.147,27.902Z" style="fill:rgb(134,136,135);fill-rule:nonzero;"/>
    </g>
    <g transform="matrix(1,0,0,1,-0.00213126,-0.107952)">
        <path d="M24.292,132.089C28.563,134.876 32.833,137.663 37.105,140.445C38.64,141.978 39.772,143.755 40.108,145.914C41.475,154.648 44.534,162.947 46.72,171.466C47.69,175.242 47.298,177.714 42.992,178.355C40.065,179.415 37.909,175.51 34.901,177.111C33.689,183.283 35.23,189.396 35.693,195.428C36.2,202.054 36.587,208.743 37.125,215.37C38.392,230.933 39.226,246.534 40.6,262.097C40.71,263.322 40.585,264.563 40.324,265.78C39.115,270.103 39.439,274.528 39.841,278.875C41.516,296.835 42.323,314.859 43.831,332.827C44.022,335.086 44.021,337.398 43.552,339.651C41.495,343.882 38.455,343.374 35.342,341.116C29.764,337.079 24.505,332.666 20.119,327.307C18.737,310.888 17.312,294.472 15.981,278.05C15.159,267.91 14.537,257.754 13.718,247.608C12.389,231.186 10.907,214.773 9.605,198.346C8.751,187.497 8.021,176.638 7.415,165.772C7.255,162.933 7.138,160.147 6.206,157.453C5.521,147.772 4.827,138.095 4.153,128.417C3.937,125.261 4.866,122.888 8.436,122.416C14.621,124.162 19.824,127.524 24.292,132.089Z" style="fill:rgb(192,191,204);fill-rule:nonzero;"/>
    </g>
    <g transform="matrix(1,0,0,1,-0.00213126,-0.107952)">
        <path d="M24.292,132.089C19.005,128.866 13.722,125.642 8.433,122.421C7.866,115.763 13.365,115.278 17.256,115.255C30.565,115.175 43.971,113.715 57.161,116.671C59.243,117.138 60.384,116.711 61.562,115.008C62.471,113.69 63.072,110.963 65.75,112.95C65.807,113.644 65.864,114.338 65.918,115.03C66.803,116.981 68.816,117.447 70.438,118.392C97.867,134.273 125.316,150.124 152.744,166.002C154.255,166.87 155.681,167.89 157.146,168.836C149.914,169.544 142.672,169.276 135.445,168.833C132.665,168.668 129.821,167.29 127.163,167.644C115.267,169.214 106.004,160.817 94.912,159.527C93.122,159.316 91.745,158.099 90.23,157.191C85.876,154.574 81.561,152.401 76.124,151.912C68.797,151.261 62.995,146.167 56.752,142.598C48.634,137.962 40.372,133.584 31.979,129.469C28.444,127.728 25.605,127.535 24.292,132.089Z" style="fill:rgb(253,253,253);fill-rule:nonzero;"/>
    </g>
    <g transform="matrix(1,0,0,1,-0.00213126,-0.107952)">
        <path d="M20.113,327.305C25.674,329.705 28.777,335.12 33.694,338.348C36.402,340.126 38.635,342.827 42.381,341.112C45.449,341.635 44.974,344.263 44.724,346.025C43.236,356.351 47.32,363.45 56.269,368.561C60.176,370.789 63.597,374.019 67.053,377.011C83.355,389.637 100.193,401.542 116.61,414.021C118.552,415.497 120.819,416.684 121.809,419.15C122.215,426.103 119.157,429.101 112.466,428.165C109.149,427.693 105.949,426.585 102.668,425.916C95.926,424.533 89.201,423.239 82.261,423.089C76.03,422.953 70.165,421.345 64.806,417.748C53.381,410.079 41.775,402.683 31.777,393.128C23.225,388.317 24.264,379.529 23.439,371.84C22.219,360.521 21.795,349.118 21.177,337.742C20.989,334.235 19.456,330.885 20.113,327.305Z" style="fill:rgb(207,202,206);fill-rule:nonzero;"/>
    </g>
    <g transform="matrix(1,0,0,1,-0.00213126,-0.107952)">
        <path d="M31.78,393.126C39.079,396.695 44.712,402.636 51.453,407.008C57.485,410.916 63.489,414.883 69.474,418.862C73.025,421.223 77.289,421.522 81.132,421.576C91.445,421.729 101.288,424.11 111.177,426.484C118.333,428.2 120.804,426.235 120.896,418.652C127.166,420.444 132.206,424.422 137.24,428.268C142.46,432.264 147.591,436.299 153.48,439.334C156.887,441.092 159.097,444.428 161.922,446.959C165.864,450.497 170.121,453.428 174.606,456.249C179.425,459.277 185.457,461.396 187.289,467.85C188.088,474.206 185.38,476.888 178.777,476.007C171.715,475.065 164.98,472.59 158.725,469.479C142.715,461.515 126.024,455.75 108.634,451.869C104.28,450.273 100.737,447.358 97.17,444.544C90.412,439.22 82.893,435.054 75.858,430.154C74.912,429.5 73.905,429.469 72.841,429.61C66.872,427.63 63.145,422.375 57.863,419.383C54.133,416.319 50.145,413.606 46.2,410.833C42.952,407.7 38.996,405.435 35.656,402.41C34.837,401.527 33.953,400.675 33.88,399.355C33.176,397.282 32.477,395.2 31.78,393.126Z" style="fill:rgb(219,213,214);fill-rule:nonzero;"/>
    </g>
    <g transform="matrix(1,0,0,1,-0.00213126,-0.107952)">
        <path d="M501.986,257.265C503.377,256.907 504.761,256.551 506.147,256.198C508.595,258.912 507.853,262.173 507.492,265.246C507.102,268.571 506.773,271.889 506.725,275.236C505.614,285.077 504.969,294.961 504.213,304.836C502.659,315.112 502.905,325.549 501.462,335.834C501.665,342.433 500.132,348.919 500.245,355.512C499.838,358.202 499.218,360.874 499.225,363.623C498.248,369.236 498.348,374.941 497.827,380.589C496.977,385.827 496.477,391.238 491.267,394.414C487.759,396.832 484.483,399.563 481.235,402.33C467.844,411.652 455.715,422.611 442.355,431.973C441.782,432.455 441.218,432.933 440.657,433.424C413.001,454.544 385.326,475.632 357.746,496.849C336.602,513.108 315.109,528.904 293.972,545.162C292.149,546.56 290.322,547.955 288.221,548.927C285.411,549.772 283.081,551.248 281.671,553.933C279.004,556.472 277.175,560.256 272.635,559.973C271.271,558.378 272.018,556.607 272.212,554.874C272.959,552.483 275.096,551.47 276.912,550.124C290.707,539.897 304.219,529.3 317.735,518.703C345.783,497.492 373.468,475.807 401.545,454.631C404.927,452.079 408.21,449.388 411.554,446.781C433.326,430.222 454.961,413.489 476.755,396.963C490.954,386.2 490.874,386.241 492.017,368.777C493.42,347.33 495.211,325.911 497.093,304.503C497.569,299.08 497.992,293.635 498.283,288.18C498.371,279.08 499.363,270.054 500.43,261.038C500.593,259.643 500.814,258.252 501.986,257.265Z" style="fill:rgb(142,162,198);fill-rule:nonzero;"/>
    </g>
    <g transform="matrix(1,0,0,1,-0.00213126,-0.107952)">
        <path d="M501.986,257.265C501.267,267.871 500.543,278.485 499.822,289.091C496.076,298.783 491.57,308.192 488.573,318.141C484.898,330.33 480.559,342.304 476.917,354.5C476.207,356.878 475.419,360.163 471.554,357.623C470.684,355.996 470.697,354.216 470.865,352.481C472.028,340.654 472.322,328.764 473.217,316.92C474.384,311.488 474.329,306.053 473.241,300.62C473.639,291.175 473.917,281.712 475.441,272.364C476.044,271.09 476.736,270.154 478.044,271.755C478.946,272.865 478.334,274.48 479.435,275.752C483.49,267.786 489.821,261.54 494.199,253.92C496.56,249.807 499.076,245.817 500.669,241.314C501.227,239.739 501.579,237.748 504.059,238.149C503.362,244.52 502.677,250.894 501.986,257.265Z" style="fill:rgb(118,142,186);fill-rule:nonzero;"/>
    </g>
    <g transform="matrix(1,0,0,1,-0.00213126,-0.107952)">
        <path d="M504.056,238.15C501.005,239.663 501.809,243.073 500.549,245.498C496.065,254.114 490.689,262.12 484.64,269.653C482.327,272.532 481.673,276.459 478.46,278.993C476.388,276.516 478.75,273.271 476.708,271.07C475.743,270.436 475.182,269.438 475.279,268.394C476.545,254.633 476.664,240.786 478.653,227.082C478.753,226.378 479.303,225.857 479.901,225.451C481.489,227.009 480.2,229.233 481.398,231.517C487.526,225.783 490.376,218.369 493.351,211.198C497.652,200.821 501.329,190.191 505.314,179.686C505.93,178.061 506.496,176.315 508.322,175.531C508.36,188.928 506.537,202.176 505.297,215.471C504.591,223.001 504.451,230.587 504.056,238.15Z" style="fill:rgb(109,131,179);fill-rule:nonzero;"/>
    </g>
    <g transform="matrix(1,0,0,1,-0.00213126,-0.107952)">
        <path d="M411.281,115.695C410.64,117.337 409.136,117.65 407.956,118.307C358.721,145.991 309.456,173.633 260.246,201.358C257.872,202.694 256.148,203.073 253.559,201.588C204.721,173.56 155.807,145.649 106.911,117.72C106.18,117.3 105.52,116.768 104.134,115.82C106.014,114.931 107.337,114.294 108.665,113.679C157.027,91.332 205.392,69.001 253.736,46.615C256.04,45.553 257.962,44.842 260.635,46.074C310.423,69.103 360.271,92.009 410.104,114.951C410.521,115.147 410.886,115.442 411.281,115.695Z" style="fill:rgb(254,254,253);fill-rule:nonzero;"/>
    </g>
    <g transform="matrix(1,0,0,1,-0.00213126,-0.107952)">
        <path d="M406.434,175.525C401.662,180.948 394.89,183.382 388.986,187.08C365.254,201.949 341.404,216.866 315.889,228.309C299.284,235.751 282.03,242.99 262.892,242.574C256.868,242.446 252.006,239.699 246.891,237.705C237.229,233.943 227.769,229.509 218.613,224.622C209.516,219.77 204.542,210.959 200.147,202.089C198.221,198.195 194.445,195.251 194.16,190.535C197.575,191.073 200.113,193.394 202.963,195.018C219.489,204.432 236.002,213.881 252.356,223.582C256.713,226.167 260.252,226.079 264.556,223.499C280.834,213.743 297.265,204.256 313.659,194.717C314.686,194.119 315.909,193.86 317.038,193.445C317.535,193.217 318.341,193.135 318.401,193.602C319.106,199.089 323.374,198.988 327.401,199.73C347.532,203.457 365.379,197.202 382.376,187.316C388.477,183.773 394.605,180.279 400.658,176.665C402.398,175.63 404.142,173.983 406.434,175.525Z" style="fill:rgb(253,253,253);fill-rule:nonzero;"/>
    </g>
    <g transform="matrix(1,0,0,1,-0.00213126,-0.107952)">
        <path d="M406.434,175.525C398.425,178.758 391.414,183.812 383.968,188.056C368.801,196.697 353.172,203.499 335.158,202.055C331.319,201.748 327.504,201.111 323.67,200.885C318.867,200.595 317.049,197.893 317.049,193.445C337.579,181.451 358.09,169.421 378.648,157.484C387.481,152.353 396.418,147.399 405.305,142.359C403.536,146.568 398.892,146.978 395.838,149.501C392.683,152.118 386.491,153.654 387.452,157.834C388.335,161.676 394.18,159.29 397.8,159.537C410.299,160.41 422.685,158.514 435.1,157.482C426.594,162.618 418.101,167.774 409.575,172.886C408.369,173.613 407.003,174.077 406.434,175.525Z" style="fill:rgb(234,244,248);fill-rule:nonzero;"/>
    </g>
    <g transform="matrix(1,0,0,1,-0.00213126,-0.107952)">
        <path d="M435.871,107.78C437.031,107.377 438.192,106.969 439.353,106.566C438.914,108.529 444.87,106.986 441.528,110.541C439.528,109.86 437.49,109.24 435.871,107.78Z" style="fill:rgb(210,226,237);fill-rule:nonzero;"/>
    </g>
    <g transform="matrix(1,0,0,1,-0.00213126,-0.107952)">
        <path d="M412.718,138.062C411.426,140.638 409.941,142.879 406.466,141.662L412.718,138.062Z" style="fill:rgb(234,244,248);fill-rule:nonzero;"/>
    </g>
    <g transform="matrix(1,0,0,1,-0.00213126,-0.107952)">
        <path d="M254.651,444.085L254.674,540.656C256.011,542.042 256.231,543.836 256.051,545.566C255.577,550.182 257.633,552.86 262.015,553.972C262.673,554.552 262.977,555.304 263.098,556.148C263.142,558.569 261.996,560.623 259.64,560.539C254.063,560.321 248.006,561.456 243.611,556.45C235.624,549.413 226.66,543.569 218.81,536.364C217.052,534.743 214.643,533.589 214.97,530.594C216.72,527.89 220.664,529.123 222.413,526.413C226.416,515.273 233.063,505.367 237.036,494.186C239.101,488.37 240.176,482.92 239.203,476.686C237.272,464.305 236.948,451.763 236.817,439.224C236.726,430.748 235.116,422.377 234.65,413.913C233.776,398.192 230.471,382.777 228.448,367.205C227.197,357.582 227.507,347.734 225.411,338.263C222.275,324.09 223.998,309.818 223.5,295.592C223.395,292.683 223.125,290.003 220.838,287.848C219.387,286.476 218.683,284.572 218.452,282.631C217.135,271.744 214.832,261.031 212.906,250.252C212.752,249.38 212.811,248.494 213.265,247.683C217.878,248.94 221.658,251.833 225.597,254.298C230.914,257.634 236.18,261.007 241.882,263.645C244.651,265.532 247.911,266.644 250.397,268.982C253.087,271.634 253.676,274.836 253.653,278.564C253.511,299.771 253.605,320.978 253.614,342.184C254.504,346.331 254.592,350.6 254.553,354.761C254.374,374.533 255.607,394.303 255.115,414.068C254.874,424.082 254.486,434.078 254.651,444.085Z" style="fill:rgb(238,231,221);fill-rule:nonzero;"/>
    </g>
    <g transform="matrix(1,0,0,1,-0.00213126,-0.107952)">
        <path d="M434.029,168.092C435.876,171.15 433.675,172.973 431.95,174.967C419.387,189.518 403.363,199.73 387.706,210.447C373.341,220.276 359.072,230.229 350.69,246.369C347.146,253.194 341.222,258.042 334.836,262.208C333.448,263.115 332.109,263.886 332.154,265.785C332.128,268.666 329.601,269.36 327.794,270.509C319.603,275.743 311.474,281.087 303.056,285.919C297.747,288.968 293.401,292.265 293.212,298.965C285.784,305.231 276.767,308.641 268.209,312.871C266.62,313.663 264.839,313.894 263.329,312.443C263.264,300.425 263.196,288.41 263.141,276.397C263.121,272.447 264.629,269.938 268.378,267.723C287.33,256.529 305.989,244.83 324.802,233.4C343.823,221.846 362.907,210.387 381.977,198.918C398.511,188.974 415.072,179.072 431.637,169.167C432.382,168.716 433.229,168.445 434.029,168.092Z" style="fill:rgb(73,92,143);fill-rule:nonzero;"/>
    </g>
    <g transform="matrix(1,0,0,1,-0.00213126,-0.107952)">
        <path d="M213.27,247.683C216.737,258.249 217.979,269.25 219.589,280.172C220.005,282.996 220.21,285.657 222.706,287.679C224.573,289.192 225.004,291.516 224.976,293.937C224.908,299.417 225.298,304.927 224.89,310.381C223.808,324.753 228.05,338.595 228.791,352.725C229.447,365.253 231.49,377.523 233.549,389.789C236.139,405.219 236.08,420.884 238.502,436.328C239.125,440.305 238.599,444.613 238.662,448.78C238.828,460.057 239.489,471.256 241.754,482.332C242.126,484.147 241.618,485.784 241.052,487.496C237.558,498.006 233.27,508.214 227.661,517.722C225.701,521.044 226.339,525.472 222.818,527.914C220.565,525.346 220.793,522.144 221.569,519.385C223.733,511.755 223.582,504.103 222.823,496.367C222.73,495.489 222.861,494.61 223.111,493.763C223.915,492.172 224.489,490.548 224.493,488.714C224.504,474.929 224.558,461.143 224.455,447.357C224.448,446.283 224.168,445.265 223.848,444.246C222.764,438.24 224.331,432.067 222.747,426.087C222.14,422.946 222.292,419.758 222.292,416.581C222.277,378.775 222.126,340.968 222.411,303.166C222.468,295.62 220.269,290.664 213.562,286.753C203.969,281.172 194.297,275.615 185.497,268.766C180.826,263.749 177.718,257.862 176.066,251.221C173.614,241.403 166.962,234.144 160.836,226.674C155.713,220.431 150.957,213.747 143.99,209.164C142.167,207.962 139.578,206.374 141.069,203.203C164.075,217.157 187.078,231.121 210.095,245.058C211.293,245.781 212.692,246.226 213.27,247.683Z" style="fill:rgb(230,222,216);fill-rule:nonzero;"/>
    </g>
    <g transform="matrix(1,0,0,1,-0.00213126,-0.107952)">
        <path d="M263.326,312.443C265.104,312.552 266.785,312.296 268.406,311.436C276.535,307.139 284.692,302.899 292.835,298.639C294.762,300.458 294.342,302.868 294.345,305.098C294.384,330.112 294.368,355.125 294.378,380.129C294.381,384.722 292.965,389.164 293.124,393.761C292.681,396.201 291.733,398.492 290.843,400.785C288.437,406.977 285.045,408.686 278.428,407.184C277.394,406.951 276.349,406.544 275.305,406.733C268.236,408.006 265.229,403.362 262.633,398.095C262.698,376.388 262.473,354.701 261.717,333.02C261.534,327.652 261.49,322.08 262.966,316.738C263.085,315.308 263.204,313.874 263.326,312.443Z" style="fill:rgb(82,101,150);fill-rule:nonzero;"/>
    </g>
    <g transform="matrix(1,0,0,1,-0.00213126,-0.107952)">
        <path d="M42.3,177.88C45.918,176.656 46.169,174.634 45.08,170.996C42.068,160.917 39.718,150.644 37.107,140.443C49.769,147.435 62.041,155.078 74.206,162.894C86.802,182.142 105.307,195.407 122.312,210.155C128.785,215.778 134.803,221.599 138.253,229.623C139.599,232.746 141.663,235.356 144.049,237.774C145.326,239.07 147.252,240.24 146.373,242.641C144.018,243.752 142.309,242.223 140.566,241.13C109.663,221.764 78.723,202.453 47.793,183.129C45.671,181.798 42.841,180.965 42.3,177.88Z" style="fill:rgb(203,198,208);fill-rule:nonzero;"/>
    </g>
    <g transform="matrix(1,0,0,1,-0.00213126,-0.107952)">
        <path d="M146.26,242.731C137.741,234.676 134.969,222.456 125.785,214.817C114.425,205.373 102.826,196.13 92.233,185.868C85.289,179.147 77.082,172.979 74.204,162.888C92.448,173.844 110.687,184.793 128.916,195.758C132.986,198.207 137.022,200.714 141.069,203.193C141.152,205.414 142.744,206.796 144.277,207.802C155.685,215.306 162.11,227.362 171,237.148C173.813,240.245 175.178,244.844 176.626,248.955C178.888,255.397 180.861,261.914 185.534,267.15C183.629,268.022 182.115,266.96 180.661,266.036C170.159,259.367 159.525,252.921 149.041,246.226C147.724,245.387 146.236,244.648 146.26,242.731Z" style="fill:rgb(215,210,209);fill-rule:nonzero;"/>
    </g>
    <g transform="matrix(1,0,0,1,-0.00213126,-0.107952)">
        <path d="M262.114,556.524C262.045,555.827 261.974,555.13 261.901,554.433C259.749,550.179 259.731,545.943 261.973,541.718C262.038,529.05 262.093,516.373 262.161,503.7C262.808,503.25 263.343,503.359 263.771,504.025C265.863,511.913 264.347,519.937 264.715,527.892C264.735,534.666 265.766,535.881 272.394,534.72C285.305,532.456 297.766,528.742 309.248,522.142C311.993,520.562 314.587,517.79 318.369,519.451C310.521,527.001 301.114,532.597 292.892,539.659C286.386,545.249 278.73,549.351 272.703,555.523C270.991,558.316 268.509,559.942 265.277,560.432C262.838,560.242 262.899,558.039 262.114,556.524Z" style="fill:rgb(126,145,180);fill-rule:nonzero;"/>
    </g>
    <g transform="matrix(1,0,0,1,-0.00213126,-0.107952)">
        <path d="M262.968,503.214C262.688,503.356 262.418,503.518 262.16,503.697C262.137,457.827 262.494,411.951 261.807,366.09C261.648,355.476 261.48,344.724 260.321,334.033C259.715,328.444 259.688,322.128 262.966,316.739C262.999,342.023 263.031,367.31 263.074,392.596C263.079,394.889 263.19,397.185 263.244,399.482C264.698,401.223 264.856,403.334 264.851,405.456C264.819,426.712 265.085,447.966 264.731,469.218C264.828,479.348 265.065,489.485 264.603,499.616C264.523,501.024 264.22,502.334 262.968,503.214ZM254.651,444.085C253.079,442.69 253.63,440.8 253.625,439.106C253.602,406.798 253.619,374.486 253.622,342.181C255.436,346.072 255.624,350.452 255.545,354.428C255.13,373.837 257.808,393.212 256.589,412.562C255.921,423.064 256.671,433.675 254.651,444.085ZM261.975,541.715L261.902,554.43C255.38,554.299 254.688,553.595 254.658,547.016C254.646,544.897 254.664,542.775 254.674,540.653C257.07,541.245 259.439,542.055 261.975,541.715ZM250.402,268.982C247.266,267.675 244.123,266.386 241.893,263.647C245.26,264.58 248.565,265.606 250.402,268.982Z" style="fill:rgb(253,253,253);fill-rule:nonzero;"/>
    </g>
    <g transform="matrix(1,0,0,1,-0.00213126,-0.107952)">
        <path d="M476.545,177.7C477.958,177.049 479.372,176.39 480.785,175.743C482.197,177.411 481.823,179.44 481.767,181.335C481.369,194.017 480.06,206.642 479.235,219.295C478.377,232.479 477.402,245.655 476.503,258.834C475.698,270.613 475.044,282.418 473.906,294.15C473.268,300.663 473.63,307.148 473.221,313.639C472.341,327.691 470.262,341.699 470.768,355.826C472.321,361.093 467.617,361.847 464.869,364.017C423.755,394.642 382.558,425.155 341.279,455.557C327.544,465.935 313.594,476.012 299.799,486.3C297.953,487.674 296.248,489.997 293.36,488.325C293.027,487.817 292.788,487.253 292.655,486.66C292.166,470.825 292.572,455.002 292.425,439.175C292.584,392.046 294.065,344.923 293.351,297.783C293.278,292.93 295.146,290.106 299.285,287.628C311.366,280.398 323.184,272.737 335.164,265.339C336.528,264.498 337.817,263.607 339.449,263.408C365.479,247.228 391.528,231.061 417.555,214.865C435.651,203.595 453.735,192.305 471.807,180.996C473.434,179.979 474.967,178.801 476.545,177.7Z" style="fill:rgb(39,51,78);fill-rule:nonzero;"/>
    </g>
    <g transform="matrix(1,0,0,1,-0.00213126,-0.107952)">
        <path d="M339.446,263.41C326.435,271.571 313.562,279.941 300.359,287.776C295.596,290.603 293.964,294.02 293.977,299.363C294.075,343.55 293.966,387.739 293.912,431.923C293.909,434.223 293.829,436.516 293.784,438.816C292.886,443.833 293.644,448.894 293.369,453.928C292.3,460.049 292.906,466.222 292.945,472.367C292.963,475.953 292.1,478.692 289.376,481.205C282.775,487.284 276.259,493.452 268.846,498.552C267.161,499.712 265.471,501.256 263.087,500.341C263.122,490.073 263.159,479.807 263.193,469.537C267.749,466.453 273.09,465.006 277.922,462.455C286.023,458.176 290.593,452.65 290.588,442.549C290.585,430.944 290.016,419.337 290.254,407.736C290.34,403.499 290.684,399.334 291.802,395.244C293.869,363.064 292.478,330.84 292.835,298.638C292.104,293.124 294.131,289.699 299.23,286.752C310.485,280.245 321.211,272.825 332.152,265.782C334.924,266.033 336.198,261.711 339.446,263.41Z" style="fill:rgb(107,121,151);fill-rule:nonzero;"/>
    </g>
    <g transform="matrix(1,0,0,1,-0.00213126,-0.107952)">
        <path d="M470.055,357.039C468.63,355.789 468.982,354.087 469.091,352.566C470.055,338.718 471.216,324.887 472.054,311.036C472.413,305.063 472.782,299.099 473.214,293.132C474.528,275.243 475.197,257.305 476.597,239.426C478.258,218.212 480.379,197.037 480.785,175.743C484.164,175.903 482.93,178.531 482.831,180.098C481.971,193.462 480.936,206.813 479.983,220.174C479.858,221.924 479.923,223.693 479.898,225.451L476.71,271.07C475.996,280.996 475.288,290.925 474.576,300.849C475.555,305.226 474.299,309.565 474.35,313.926C473.217,326.133 472.6,338.373 471.732,350.598C471.568,352.856 471.747,355.18 470.055,357.039Z" style="fill:rgb(37,39,43);fill-rule:nonzero;"/>
    </g>
    <g transform="matrix(1,0,0,1,-0.00213126,-0.107952)">
        <path d="M146.26,242.731C159.161,251.169 172.147,259.478 185.531,267.153C196.41,274.045 207.194,281.102 218.218,287.753C222.22,290.16 223.68,293.06 223.674,297.64C223.636,338.499 223.776,379.363 223.878,420.222C223.881,422.161 223.986,424.109 224.044,426.049C225.071,446.066 225.038,466.106 224.879,486.14C224.84,490.629 222.828,491.516 218.714,488.635C209.775,482.375 201.171,475.656 192.45,469.113C151.597,437.626 109.306,408.049 68.146,376.954C61.026,372.219 54.608,366.502 47.352,361.974C44.698,360.321 45.009,357.989 45.059,355.55C45.256,339.657 43.291,323.906 42.181,308.107C41.786,302.486 41.652,296.861 41.078,291.233C39.824,278.98 40.053,266.622 39.215,254.333C37.954,235.882 36.653,217.433 35.31,198.988C34.867,192.839 34.588,186.682 33.954,180.539C33.746,178.499 33.464,176.27 34.966,174.429C37.983,174.356 39.613,177.248 42.303,177.874L146.26,242.731Z" style="fill:rgb(39,51,78);fill-rule:nonzero;"/>
    </g>
    <g transform="matrix(1,0,0,1,-0.00213126,-0.107952)">
        <path d="M34.962,174.433C35.179,190.064 36.784,205.596 38.034,221.158C39.025,233.4 39.414,245.692 40.289,257.947C41.549,275.603 42.981,293.241 44.417,310.888C44.817,315.797 44.723,320.723 44.968,325.629C45.489,336.081 48.094,346.517 45.888,357.049C44.15,355.692 44.066,353.698 44.008,351.789C43.581,336.706 42.287,321.67 41.26,306.613C40.407,294.05 38.93,281.52 38.685,268.914C38.665,267.865 38.552,266.796 39.056,265.8C37.872,248.484 36.71,231.167 35.489,213.852C34.659,202.108 33.677,190.365 32.937,178.611C32.844,177.137 31.396,174.392 34.962,174.433Z" style="fill:rgb(46,47,49);fill-rule:nonzero;"/>
    </g>
    <g transform="matrix(1,0,0,1,-0.00213126,-0.107952)">
        <path d="M39.058,265.798C39.392,289.415 43.219,312.794 43.823,336.425C43.995,343.174 43.242,350.392 45.89,357.049C45.392,359.511 47.207,360.25 48.817,361.417C55.525,366.252 62.107,371.268 68.731,376.214C69.467,378.239 69.318,379.409 66.76,378.265C60.079,373.158 53.441,367.992 46.698,362.972C43.159,360.341 44.076,356.423 43.478,352.956C42.799,349.05 44.57,344.898 42.38,341.112C41.815,320.259 39.903,299.502 38.301,278.716C37.978,274.469 37.098,269.997 39.058,265.798Z" style="fill:rgb(221,220,222);fill-rule:nonzero;"/>
    </g>
    <g transform="matrix(1,0,0,1,-0.00213126,-0.107952)">
        <path d="M66.763,378.266C68.612,378.728 68.077,376.897 68.732,376.215C92.042,393.316 115.409,410.361 138.657,427.54C156.521,440.737 174.252,454.112 192.042,467.409C192.459,468.712 193.065,470.171 191.348,470.898C190.016,471.462 189.083,470.45 188.528,469.365C187.897,468.142 186.524,468.193 185.668,467.415C185.628,463.179 181.325,462.681 179.084,460.828C173.182,455.966 166.197,452.688 160.428,447.238C157.524,444.499 155.492,438.661 149.587,439.581C148.119,435.222 141.839,436.831 140.34,431.951C139.885,430.467 136.902,428.977 135.301,428.029C130.353,425.099 125.608,421.903 120.886,418.649C102.849,405.183 84.808,391.722 66.763,378.266Z" style="fill:rgb(232,231,232);fill-rule:nonzero;"/>
    </g>
    <g transform="matrix(1,0,0,1,-0.00213126,-0.107952)">
        <path d="M185.671,467.409C186.879,467.873 188.879,465.409 189.362,468.307C189.555,469.482 189.852,470.595 191.062,470.139C191.649,469.914 191.734,468.364 192.047,467.406C202.416,474.891 212.787,482.369 224.049,490.497L224.049,426.05C225.983,431.982 224.421,438.095 224.962,444.098C226.072,456.754 225.193,469.442 225.437,482.108C225.514,486.124 225.937,490.222 223.884,493.975C225.136,502.343 226.063,510.622 223.057,518.951C222.096,521.623 222.854,524.902 222.821,527.909C221.455,531.572 217.311,528.734 215.385,531.095C213.131,532.642 211.705,530.753 210.323,529.653C187.692,511.669 163.996,495.099 141.146,477.401C131.536,469.962 121.515,463.044 111.907,455.591C110.208,454.272 107.722,453.373 108.193,450.432C114.652,452.03 120.913,454.229 127.607,455.125C133.1,455.864 138.31,458.051 143.324,460.921C154.058,467.061 165.694,471.232 177.638,474.425C180.329,475.142 183.255,475.671 185.582,473.253C187.413,471.367 186.68,469.377 185.671,467.409Z" style="fill:rgb(226,220,219);fill-rule:nonzero;"/>
    </g>
    <g transform="matrix(1,0,0,1,-0.00213126,-0.107952)">
        <path d="M108.19,450.441C115.238,457.622 123.804,462.901 131.751,468.933C157.214,488.27 183.222,506.886 208.398,526.613C210.531,528.29 212.359,530.705 215.383,531.097C222.911,539.245 232.104,545.403 240.752,552.213C242.002,553.2 243.34,554.016 244.061,555.5C241.756,557.395 239.396,555.668 237.056,555.616C233.373,554.521 230.806,551.748 227.861,549.527C193.649,523.692 159.661,497.562 125.622,471.496C121.84,468.606 118.256,465.449 114.26,462.835C101.836,452.515 88.375,443.533 75.892,433.271C74.946,431.954 72.823,431.427 73.134,429.246C74.911,425.591 76.086,429.028 77.306,429.705C88.214,435.705 97.57,444.013 108.19,450.441Z" style="fill:rgb(219,224,232);fill-rule:nonzero;"/>
    </g>
    <g transform="matrix(1,0,0,1,-0.00213126,-0.107952)">
        <path d="M318.371,519.44C315.824,519.679 313.648,521.006 311.645,522.329C300.157,529.939 286.983,532.857 273.943,536.16C272.94,536.418 271.853,536.378 270.801,536.405C263.239,536.607 263.079,536.452 263.264,528.928C264.246,527.985 265.466,527.94 266.723,527.972C274.427,528.133 281.171,525.165 287.707,521.518C299.282,515.065 309.782,507.014 320.752,499.662C339.146,487.343 355.357,472.38 372.135,458.119C384.398,447.697 392.771,434.113 400.08,419.898C401.025,418.071 401.181,416.215 400.717,414.26C401.196,411.922 403.223,410.928 404.87,409.69C420.943,397.589 437.282,385.845 453.389,373.797C454.929,372.646 456.44,371.343 458.531,371.266C462.817,372.841 461.642,375.876 460.202,378.581C456.556,385.427 453.217,392.501 448.437,398.644C440.191,409.247 432.917,420.515 425.552,431.707C421.548,437.788 416.836,443.18 411.744,448.302C388.874,465.77 366.013,483.244 343.13,500.693C334.901,506.979 326.622,513.194 318.371,519.44Z" style="fill:rgb(118,137,182);fill-rule:nonzero;"/>
    </g>
    <g transform="matrix(1,0,0,1,-0.00213126,-0.107952)">
        <path d="M411.742,448.307C416.859,441.245 422.442,434.463 427.014,427.059C437.253,410.458 450.598,395.898 459.042,378.131C460.075,375.95 461.898,373.67 458.451,371.905C458.34,369.105 460.831,368.362 462.464,367.066C465.953,364.293 469.778,361.914 472.278,358.074C474.844,357.972 474.992,356.084 475.606,354.135C480.408,338.943 485.212,323.754 490.396,308.695C492.322,303.089 495.402,297.882 496.594,291.983C496.954,290.2 497.97,289.193 499.816,289.088C498.064,309.011 496.244,328.928 494.594,348.852C493.712,359.534 492.856,370.222 492.512,380.924C492.295,387.457 487.743,390.487 483.507,393.738C459.651,412.013 435.675,430.137 411.742,448.307Z" style="fill:rgb(126,149,190);fill-rule:nonzero;"/>
    </g>
    <g transform="matrix(1,0,0,1,-0.00213126,-0.107952)">
        <path d="M272.727,559.851L270.648,562.092C268.91,565.042 266.507,566.876 262.919,566.749C262.447,566.617 262.043,566.31 261.79,565.892C261.728,563.191 263.295,561.401 265.2,559.804C267.701,558.372 270.207,556.945 272.706,555.514C273.778,556.954 272.191,558.407 272.727,559.851Z" style="fill:rgb(146,163,193);fill-rule:nonzero;"/>
    </g>
    <g transform="matrix(1,0,0,1,-0.00213126,-0.107952)">
        <path d="M287.818,548.219C285.928,550.316 284.06,552.452 281.167,553.21C282.012,549.717 284.586,548.524 287.818,548.219Z" style="fill:rgb(126,145,180);fill-rule:nonzero;"/>
    </g>
    <g transform="matrix(1,0,0,1,-0.00213126,-0.107952)">
        <path d="M472.278,358.078C471.696,363.347 466.949,364.886 463.636,367.707C461.941,369.149 460.18,370.507 458.45,371.908C439.338,386.05 420.223,400.193 401.11,414.338C400.837,416.109 399.44,416.948 398.163,417.865C372.132,436.553 346.753,456.124 320.76,474.852C319.063,476.067 317.28,478.845 314.663,475.987C316.302,471.64 320.874,470.612 324.021,468.037C329.557,463.515 335.356,459.272 341.244,455.19C381.073,425.751 420.826,396.204 460.734,366.866C461.966,365.961 463.576,365.277 463.841,363.447C465.229,360.638 470.613,361.721 470.06,357.036C471.209,342.545 472.358,328.058 473.499,313.57C475.728,314.06 474.856,315.433 474.384,316.695C473.684,330.489 472.981,344.283 472.278,358.078Z" style="fill:rgb(146,157,178);fill-rule:nonzero;"/>
    </g>
    <g transform="matrix(1,0,0,1,-0.00213126,-0.107952)">
        <path d="M474.384,316.699C474.315,315.59 474.572,314.395 473.499,313.575C473.857,309.327 474.218,305.089 474.574,300.849C475.903,306.146 476.183,311.436 474.384,316.699Z" style="fill:rgb(126,149,190);fill-rule:nonzero;"/>
    </g>
    <g transform="matrix(1,0,0,1,-0.00213126,-0.107952)">
        <path d="M290.375,90.508L298.272,80.453C298.076,80.161 297.869,79.877 297.666,79.584C271.18,90.412 244.694,101.238 218.208,112.063C218.003,111.771 217.79,111.48 217.585,111.188C224.374,104.418 231.171,97.649 237.951,90.867C245.738,83.076 245.733,83.071 235.485,78.372C230.886,76.262 226.291,74.142 220.588,71.511C229.584,67.294 237.98,64.126 245.565,59.592C254.003,54.555 261.057,55.121 269.922,59.402C308.511,78.03 347.522,95.784 386.384,113.863C387.631,114.441 388.877,115.039 390.07,115.61C389.912,117.465 388.416,117.603 387.453,118.135C362.169,132.215 336.836,146.199 311.583,160.342C308.789,161.906 306.555,162.057 303.781,160.488C298.252,157.365 292.567,154.52 286.952,151.554C280.334,148.055 280.351,148.073 284.877,142.451C297.954,126.208 311.014,109.951 324.914,92.67L304.669,100.246C304.18,100.471 303.509,100.625 303.223,100.226C299.953,95.636 295.152,93.094 290.375,90.508Z" style="fill:rgb(41,53,80);fill-rule:nonzero;"/>
    </g>
    <g transform="matrix(1,0,0,1,-0.00213126,-0.107952)">
        <path d="M280.412,159.47L296.99,168.19C288.272,173.067 280.411,177.526 272.485,181.876C267.251,184.753 261.947,189.617 256.649,189.645C251.578,189.677 246.467,184.643 241.403,181.785C204.507,160.963 167.619,140.135 130.73,119.311C129.201,118.443 127.688,117.544 126.197,116.682C126.27,114.587 128.108,114.641 129.206,114.123C154.916,102.064 180.677,90.113 206.373,78.028C209.154,76.719 211.53,76.45 214.34,77.874C218.108,79.779 221.995,81.54 225.974,82.939C229.999,84.359 230.853,85.476 227.294,88.898C212.374,103.239 197.747,117.877 182.979,132.373C181.597,133.732 180,134.877 179.126,136.943C189.794,132.802 200.459,128.667 211.125,124.524C214.889,125.797 214.868,129.109 214.544,131.984C213.807,138.366 216.941,141.687 222.371,144.105C236.054,150.209 249.564,156.691 263.199,162.903C266.191,164.267 268.805,164.241 271.776,162.859C274.564,161.568 276.927,159.028 280.412,159.47Z" style="fill:rgb(43,55,83);fill-rule:nonzero;"/>
    </g>
    <g transform="matrix(1,0,0,1,-0.00213126,-0.107952)">
        <path d="M280.412,159.47C279.543,160.064 278.67,160.646 277.803,161.241C271.598,165.522 265.869,166.511 258.498,162.367C247.525,156.198 235.631,151.67 224.135,146.432C222.695,145.772 221.308,144.998 219.866,144.348C215.146,142.231 212.141,139.25 213.185,133.428C213.737,130.348 213.575,127.083 211.128,124.527C229.897,116.631 248.67,108.739 267.442,100.843C267.684,101.168 267.932,101.486 268.172,101.81L238.242,136.671C238.375,136.922 238.515,137.175 238.657,137.43L293.349,114.868C293.566,115.124 293.781,115.38 293.995,115.63C289.688,121.031 285.383,126.437 281.068,131.835C276.656,137.347 272.306,142.911 267.783,148.329C266.113,150.336 266.143,151.324 268.605,152.596C272.644,154.679 276.487,157.162 280.412,159.47Z" style="fill:rgb(50,65,95);fill-rule:nonzero;"/>
    </g>
    <g transform="matrix(1,0,0,1,-0.00213126,-0.107952)">
        <path d="M290.375,90.508C297.541,90.24 300.77,95.738 304.68,100.246L271.342,114.416C271.054,114.043 270.773,113.673 270.485,113.295C277.112,105.702 283.742,98.101 290.375,90.508Z" style="fill:rgb(50,65,94);fill-rule:nonzero;"/>
    </g>
    <g transform="matrix(1,0,0,1,-0.00213126,-0.107952)">
        <path d="M265.195,559.806C265.075,562.332 262.784,563.77 262.098,566.007C261.666,567.631 260.386,568.083 258.947,568.292C252.858,569.181 239.225,560.676 236.708,554.424L244.058,555.508C248.185,560.273 254.196,558.262 259.27,559.607C261.017,560.07 261.95,558.298 262.11,556.527C263.337,557.432 263.528,559.312 265.195,559.806Z" style="fill:rgb(203,215,223);fill-rule:nonzero;"/>
    </g>
    <g transform="matrix(1,0,0,1,-0.00213126,-0.107952)">
        <path d="M223.879,493.976C222.934,493.558 220.105,493.344 222.388,492.037C225.377,490.322 224.927,488.132 224.937,485.805C224.981,471.902 224.96,458.006 224.96,444.102C226.433,445.305 225.98,446.991 225.981,448.513C226.015,461.848 226.005,475.187 226.008,488.524C226.009,490.616 226.324,492.836 223.879,493.976Z" style="fill:rgb(238,231,221);fill-rule:nonzero;"/>
    </g>
    <g transform="matrix(1,0,0,1,-0.00213126,-0.107952)">
        <path d="M291.799,395.242C292.291,406.496 291.723,417.745 292.49,429.038C292.965,436.043 292.072,443.401 291.717,450.597C291.529,454.292 288.704,456.573 286.148,458.654C279.421,464.144 271.915,468.186 263.188,469.539C263.204,446.183 263.222,422.832 263.242,399.479C263.417,399.503 263.693,399.462 263.745,399.556C267.599,406.134 274.806,404.684 280.611,406.481C284.641,407.73 287.194,405.291 288.981,401.906C290.119,399.769 290.025,397.11 291.799,395.242Z" style="fill:rgb(94,113,149);fill-rule:nonzero;"/>
    </g>
    <g transform="matrix(1,0,0,1,-0.00213126,-0.107952)">
        <path d="M315.158,475.884C317.3,476.997 318.255,475.08 319.554,474.127C346.745,454.204 373.923,434.266 401.11,414.334C403.786,415.489 402.885,417.236 401.977,419.093C392.536,438.279 379.893,454.858 362.814,467.961C351.545,476.607 341.745,487.091 329.7,494.772C317.876,502.314 307.673,512.218 294.934,518.452C291.33,520.216 288.09,522.725 284.541,524.622C277.908,528.166 270.884,530.113 263.263,528.927L262.976,503.214L263.085,500.341C273.788,494.669 281.955,485.87 290.775,477.87C292.359,476.433 291.628,474.584 291.796,472.9C292.394,466.852 290.584,460.659 292.855,454.709C294.037,464.104 293.028,473.54 293.411,482.949C293.486,484.81 292.755,486.803 294.054,488.535L293.923,488.646C297.684,489.342 299.371,485.973 301.773,484.306C305.337,481.832 309.106,479.564 312.279,476.508C312.991,475.822 314.037,475.35 315.158,475.884Z" style="fill:rgb(109,130,169);fill-rule:nonzero;"/>
    </g>
    <g transform="matrix(1,0,0,1,-0.00213126,-0.107952)">
        <path d="M438.303,307.435C435.299,312.689 435.212,318.481 435.081,324.293C434.892,332.507 433.604,340.364 428.01,346.966C425.126,350.371 421.623,353.01 418.027,355.418C408.386,361.875 399.747,369.738 389.629,375.498C386.031,377.546 382.135,378.124 377.968,378.362C368.215,378.931 359.194,382.666 350.047,385.76C344.401,387.666 339.001,390.475 332.74,389.98C330.942,389.835 329.237,389.668 327.678,388.729C332.789,378.903 329.885,368.08 331.835,357.867C331.606,357.127 330.513,357.649 331.21,357.56C331.461,357.526 331.558,357.673 331.501,358.001C330.248,365.271 329.493,372.583 329.359,379.969C329.319,382.082 329.955,384.693 327.02,385.729C323.776,385.699 322.789,382.156 320.086,381.289C319.16,380.072 319.068,378.653 319.353,377.267C321.119,368.681 322.246,359.967 324.699,351.528C325.863,350.376 327.413,349.693 329.049,349.613C330.368,350.078 331.72,350.544 332.427,348.741C333.129,346.94 332.686,345.438 331.085,344.313C332.339,336.763 337.333,331.298 342.354,326.326C358.881,309.972 375.37,293.507 392.831,278.178C402.536,269.663 414.145,263.331 424.901,256.014C426.349,255.023 427.762,253.974 429.259,253.081C431.361,251.823 433.437,250.549 436.096,251.912C438.898,253.359 439.46,255.655 439.372,258.524C439.239,262.756 439.319,266.995 439.347,271.237C439.358,272.936 438.908,274.949 441.5,275.319C442.035,276.903 441.087,278.078 440.26,279.164C435.721,285.112 435.384,292.244 434.446,299.224C433.979,302.811 436.036,305.165 438.303,307.435Z" style="fill:rgb(50,64,93);fill-rule:nonzero;"/>
    </g>
    <g transform="matrix(1,0,0,1,-0.00213126,-0.107952)">
        <path d="M324.7,351.528C325.544,358.055 323.016,364.133 322.155,370.427C321.656,374.075 320.787,377.671 320.087,381.294C319.23,385.015 318.033,388.7 317.607,392.466C317.128,396.73 314.803,398.997 310.392,400.779C309.169,389.23 307.902,378.049 306.844,366.847C306.549,363.715 309.57,363.294 311.777,361.567C312.615,370.708 313.401,379.269 314.183,387.825C314.464,387.864 314.74,387.907 315.025,387.944C316.799,378.424 318.784,368.94 320.238,359.374C320.758,355.962 321.841,353.37 324.7,351.528Z" style="fill:rgb(251,251,250);fill-rule:nonzero;"/>
    </g>
    <g transform="matrix(1,0,0,1,-0.00213126,-0.107952)">
        <path d="M438.303,307.435C432.029,307.342 432.847,302.483 433.096,298.824C433.689,290.28 435.567,282.026 441.509,275.32C447.223,272.066 449.028,272.978 449.013,279.631C448.98,290.208 448.035,300.546 438.303,307.435Z" style="fill:rgb(252,252,251);fill-rule:nonzero;"/>
    </g>
    <g transform="matrix(1,0,0,1,-0.00213126,-0.107952)">
        <path d="M463.84,363.448C464.582,365.256 464.572,365.237 462.719,366.605C447.422,377.848 432.123,389.087 416.838,400.345C391.781,418.805 366.736,437.267 341.683,455.734C340.595,456.181 340.405,455.7 340.669,454.747C370.932,432.246 401.198,409.732 431.483,387.249C442.234,379.269 453.052,371.38 463.84,363.448Z" style="fill:rgb(196,204,215);fill-rule:nonzero;"/>
    </g>
    <g transform="matrix(1,0,0,1,-0.00213126,-0.107952)">
        <path d="M457.111,285.068C454.224,289.281 455.996,295.24 450.239,297.853C449.893,294.39 451.304,291.526 452.395,288.824C454.799,282.853 455.615,277.043 452.591,271.127C451.155,268.317 453.232,267.291 454.998,266.204C458.086,264.302 456.764,268.315 458.65,268.738C460.729,266.048 459.463,260.874 464.375,259.784C465.31,261.445 464.043,263.058 463.456,264.4C460.501,271.172 459.591,277.862 463.146,284.674C465.171,288.556 461.946,289.457 459.279,291.257C458.561,289.193 457.902,287.316 457.111,285.068Z" style="fill:rgb(250,250,250);fill-rule:nonzero;"/>
    </g>
    <g transform="matrix(1,0,0,1,-0.00213126,-0.107952)">
        <path d="M327.021,385.731C327.658,377.833 328.455,369.938 328.855,362.028C329.005,359.161 329.905,357.38 333.411,356.234C332.789,365.95 332.242,375.319 331.563,384.681C331.401,386.934 328.998,387.398 327.674,388.728L327.021,385.731Z" style="fill:rgb(249,250,249);fill-rule:nonzero;"/>
    </g>
    <g transform="matrix(1,0,0,1,-0.00213126,-0.107952)">
        <path d="M340.67,454.749C341.009,455.08 341.347,455.403 341.685,455.736L315.158,475.882C309.529,479.943 303.887,483.996 298.266,488.08C296.892,489.076 295.676,490.79 293.923,488.646C307.492,478.725 321.062,468.796 334.64,458.891C336.611,457.452 338.658,456.127 340.67,454.749Z" style="fill:rgb(175,185,196);fill-rule:nonzero;"/>
    </g>
    <g transform="matrix(1,0,0,1,-0.00213126,-0.107952)">
        <path d="M294.054,488.537C292.166,487.295 292.902,485.359 292.891,483.712C292.822,474.047 292.857,464.377 292.855,454.71C293.394,449.425 291.797,444.01 293.785,438.809C293.875,455.387 293.963,471.962 294.054,488.537Z" style="fill:rgb(94,113,149);fill-rule:nonzero;"/>
    </g>
    <g transform="matrix(1,0,0,1,-0.00213126,-0.107952)">
        <path d="M331.088,344.31C332.03,344.081 333.304,342.686 333.807,343.664C334.951,345.89 334.466,348.343 333.221,350.533C332.63,351.578 331.872,352.804 330.541,352.6C328.955,352.358 329.578,350.614 329.051,349.614L331.088,344.31Z" style="fill:rgb(232,233,236);fill-rule:nonzero;"/>
    </g>
    <g transform="matrix(1,0,0,1,-0.00213126,-0.107952)">
        <path d="M67.494,264.89C70.841,260.135 67.243,255.484 67.167,250.783C67.128,248.342 66.353,245.868 67.368,243.519C71.467,234.022 75.464,233.237 86.05,239.76C98.981,247.731 111.069,257.336 122.291,267.748C131.53,276.318 138.723,286.557 144.309,297.825C149.636,308.581 155.844,318.806 162.087,329.028C162.918,330.395 163.554,331.852 163.396,333.528C163.469,343.194 165.36,352.696 166.021,362.315C166.117,363.721 166.401,365.297 167.457,366.203C172.997,370.953 178.228,376.224 185.628,378.175C188.562,380.988 187.366,384.804 188.085,388.165C189.259,393.661 190.707,399.105 191.765,404.617C192.633,409.152 192.462,413.464 187.524,415.99C182.531,418.552 176.917,418.208 173.447,414.218C168.489,408.522 163.449,402.833 160.036,395.973C156.573,389.01 153.321,381.923 149.535,375.139C142.792,363.05 133.797,352.892 121.242,346.707C112.977,342.637 104.209,340.284 96.01,347.424C93.922,349.243 92.203,347.736 90.926,346.477C89.326,344.898 87.895,342.972 86.943,340.934C81.465,329.181 78.534,316.744 77.451,303.854C81.465,304.353 85.643,305.168 86.259,299.205C87.03,298.038 87.019,295.936 89.331,296.582C91.462,301.304 90.225,306.673 92.496,312.163C91.984,307.492 91.746,303.548 91.973,299.586C92.277,298.11 92.394,296.022 94.34,296.277C97.199,296.653 96.092,299.428 96.595,301.215C100.498,309.96 103.477,319.213 110.404,326.284C111.464,327.222 112.568,328.097 113.788,328.817C115.128,329.858 116.697,330.054 118.327,330.018C123.77,332.77 128.674,336.408 133.942,339.449C135.451,340.709 136.189,342.466 136.95,344.189C137.813,346.138 139.086,347.278 141.365,346.706C142.122,346.672 142.843,346.807 143.495,347.208C147.602,353.22 152.986,357.69 160.334,361.593C159.041,357.424 156.276,356.285 154.01,354.867C146.726,350.316 141.891,344.189 140.472,335.555C140.124,333.405 139.945,331.363 140.734,329.304C142.175,325.536 144.177,324.781 147.707,326.79C149.238,327.668 150.519,328.945 152.041,329.842C153.358,330.62 154.417,332.014 157.016,331.693C152.903,327.387 148.301,324.637 143.74,321.894C142.038,320.871 140.341,322.239 138.66,322.665C136.032,322.865 135.03,320.887 133.878,319.101C131.18,314.943 128.854,310.556 126.927,305.99C120.688,291.119 111.977,277.965 100.38,266.715C96.701,263.149 93.904,258.767 90.033,255.351C88.84,254.296 87.752,253.11 86.327,252.364C84.713,251.526 82.968,250.889 81.291,251.949C79.47,253.101 79.764,255.057 80.128,256.765C81.606,263.693 83.731,270.447 86.134,277.099C87.212,280.094 88.321,283.053 88.987,286.172C89.331,287.8 89.448,289.432 88.947,291.051C88.62,291.846 88.117,292.446 87.212,292.588C84.986,291.86 84.829,289.774 84.261,287.987C81.823,280.28 78.021,273.585 70.824,269.269C69.201,268.292 67.516,267.165 67.494,264.89Z" style="fill:rgb(51,65,94);fill-rule:nonzero;"/>
    </g>
    <g transform="matrix(1,0,0,1,-0.00213126,-0.107952)">
        <path d="M87.212,299.668C85.211,306.934 84.107,307.409 77.452,303.851C69.559,297.996 61.441,292.379 58.728,282.026C57.522,277.43 56.052,272.877 56.612,268.083C57.378,261.588 60.304,260.364 65.651,264.037C66.202,264.409 66.876,264.609 67.489,264.895C73.412,270.061 80.649,273.997 83.381,282.119C84.527,285.526 85.764,288.902 86.962,292.291C89.195,294.674 87.132,297.208 87.212,299.668Z" style="fill:rgb(252,252,251);fill-rule:nonzero;"/>
    </g>
    <g transform="matrix(1,0,0,1,-0.00213126,-0.107952)">
        <path d="M204.123,381.968C198.961,378.273 194.237,374.89 188.714,370.933C189.8,376.542 191.955,380.492 195.815,383.434C199.32,386.122 202.903,388.706 206.56,391.183C208.332,392.38 209.017,393.684 207.888,395.544C206.395,397.998 205.258,395.702 204.145,395.071C192.619,388.573 185.785,378.842 184.067,365.645C183.882,364.244 183.646,362.824 183.723,361.433C183.89,358.448 183.89,355.169 187.053,353.593C190.008,352.12 191.978,354.637 194.091,356.061C197.311,358.234 200.338,360.698 203.594,362.811C205.542,364.073 205.667,365.57 204.635,367.224C203.065,369.733 201.964,367.161 200.934,366.548C198.663,365.205 196.634,363.465 194.444,361.977C192.619,360.74 190.698,358.578 188.571,361.354C186.416,364.182 188.938,365.37 190.778,366.706C194.928,369.713 199.097,372.694 203.216,375.739C206.015,377.814 205.989,377.855 204.123,381.968Z" style="fill:rgb(251,251,251);fill-rule:nonzero;"/>
    </g>
    <g transform="matrix(1,0,0,1,-0.00213126,-0.107952)">
        <path d="M185.631,378.174C184.711,379.249 184.282,380.965 182.157,379.3C177.433,375.604 172.479,372.187 167.615,368.669C165.574,367.193 164.854,365.031 164.613,362.703C163.669,353.566 162.846,344.415 161.873,335.279C161.726,333.866 161.93,333.28 163.398,333.527C164.757,334.696 165.528,335.993 165.674,337.952C166.078,343.37 167.44,348.777 167.284,354.155C167.086,361.351 170.206,365.674 176.057,369.389C179.603,371.649 184.539,373.007 185.631,378.174Z" style="fill:rgb(250,250,250);fill-rule:nonzero;"/>
    </g>
    <g transform="matrix(1,0,0,1,-0.00213126,-0.107952)">
        <path d="M236.712,554.422C242.502,558.885 247.468,564.542 254.973,566.487C257.511,567.136 259.8,567.308 262.104,566.004L262.144,566.495C270.411,567.221 277.763,564.032 284.859,560.608C303.947,551.385 321.841,540.258 337.974,526.351C340.505,524.175 342.606,520.244 347.148,521.476C347.587,523.8 345.92,525.043 344.515,526.302C325.271,543.407 303.873,557.176 280.286,567.5C273.253,570.582 265.826,571.894 258.144,571.711C251.342,570.824 245.258,568.111 239.606,564.345C224.439,554.237 210.526,542.497 196.433,531C171.239,510.472 145.455,490.679 119.113,471.646C117.136,470.213 114.88,469.038 113.696,466.7C113.236,464.958 113.12,463.282 114.627,461.931C123.978,467.809 132.277,475.103 141.055,481.744C162.821,498.194 184.431,514.858 206.136,531.388C216.285,539.121 226.515,546.749 236.712,554.422Z" style="fill:rgb(64,67,84);fill-rule:nonzero;"/>
    </g>
    <g transform="matrix(1,0,0,1,-0.00213126,-0.107952)">
        <path d="M124.126,508.783C124.092,508.438 124.088,508.091 124.114,507.745C123.878,505.612 125.401,506.058 126.51,506.242C128.239,506.536 129.84,507.297 131.425,508.054C131.876,508.335 132.431,508.601 132.625,509.07C136.816,519.019 145.472,524.508 153.541,530.844C169.103,543.062 184.177,555.904 199.26,568.726C202.132,571.176 205.853,572.18 208.867,574.306C211.988,576.524 216.375,578.052 215.557,583.298C214.906,583.79 214.162,583.932 213.367,583.884C208.116,583.174 203.477,580.469 198.08,578.89C197.625,582.872 203.511,586.506 198.447,590.204C191.797,588.955 185.867,586.228 180.821,581.669C180.02,577.42 177.687,573.875 175.583,570.219C174.892,569.024 173.847,567.672 174.979,566.339C176.297,564.792 177.906,565.785 179.333,566.388C181.405,567.263 183.185,568.668 185.323,569.553C169.16,557.085 155.061,542.263 139.16,529.494C137.747,528.364 136.236,527.554 134.416,527.377C131.927,526.253 131.297,523.583 129.709,521.706C127.218,517.678 124.948,513.543 124.126,508.783Z" style="fill:rgb(225,227,233);fill-rule:nonzero;"/>
    </g>
    <g transform="matrix(1,0,0,1,-0.00213126,-0.107952)">
        <path d="M131.529,508.874C128.862,509.775 126.934,505.822 124.112,507.745C122.292,505.215 121.576,502.258 120.903,499.291C119.814,497.095 121.01,496.508 122.892,496.629C124.252,496.718 125.454,497.425 126.644,498.057C127.09,498.301 127.502,498.603 127.884,498.93C129.459,500.563 130.296,502.628 131.246,504.635C131.651,506.026 132.378,507.4 131.529,508.874Z" style="fill:rgb(198,203,211);fill-rule:nonzero;"/>
    </g>
    <g transform="matrix(1,0,0,1,-0.00213126,-0.107952)">
        <path d="M127.289,499.268C125.168,500.452 123.017,494.665 120.904,499.292C120.195,497.864 119.491,496.434 118.782,495.016L118.746,492.915C124.626,491.282 127.82,493.663 127.289,499.268Z" style="fill:rgb(168,173,190);fill-rule:nonzero;"/>
    </g>
    <g transform="matrix(1,0,0,1,-0.00213126,-0.107952)">
        <path d="M346.989,521.555C341.221,524.311 336.964,529.07 331.976,532.867C312.721,547.547 292.735,560.869 269.057,567.577C266.364,568.338 264.26,568.093 262.147,566.502C265.251,565.557 267.999,563.915 270.65,562.093C271.369,565.179 273.158,563.595 274.691,562.998C288.776,557.514 301.54,549.514 313.434,540.502C336.117,523.307 358.216,505.344 380.385,487.488C386.67,482.426 391.255,475.361 398.775,471.694C399.891,471.148 399.949,470.068 400.087,468.995C400.553,465.253 404.085,464.064 406.482,464.032C408.391,464.005 407.171,467.613 407.455,469.585C401.232,472.943 398.547,479.642 393.47,484.257C380.316,496.222 366.518,507.368 352.866,518.708C351.221,520.063 349.695,522.173 346.989,521.555Z" style="fill:rgb(50,58,83);fill-rule:nonzero;"/>
    </g>
    <g transform="matrix(1,0,0,1,-0.00213126,-0.107952)">
        <path d="M346.989,521.555C362.777,509.039 378.687,496.664 393.027,482.445C395.919,479.576 399.998,478.008 400.899,473.034C401.236,471.154 404.472,469.305 407.455,469.587C407.102,472.05 408.476,474.733 406.497,476.983C402.341,478.962 400.206,482.887 397.365,486.197C387.937,497.161 377.015,506.603 366.077,515.989C360.88,520.455 355.956,525.276 350.152,529.018C341.608,535.002 334.117,542.446 325.149,547.772C307.222,558.409 289.194,568.982 268.116,572.405C265.65,572.806 263.182,572.988 260.718,572.647C259.433,572.473 257.698,572.542 257.858,570.394C273.972,570.95 287.14,563.133 300.633,555.815C315.851,547.557 329.53,537.252 342.729,526.189C344.319,524.846 345.576,523.103 346.989,521.555Z" style="fill:rgb(67,78,109);fill-rule:nonzero;"/>
    </g>
    <g transform="matrix(1,0,0,1,-0.00213126,-0.107952)">
        <path d="M350.181,527.929C361.733,517.648 373.909,508.099 384.891,497.139C390.348,491.695 396.284,486.868 400.026,479.897C401.215,477.681 403.838,476.855 406.489,476.979C406.204,479.838 407.123,482.866 405.272,485.497C402.316,487.425 398.861,488.786 397.473,492.472C382.325,509.852 365.365,525.258 347.35,539.636C328.893,554.36 308.688,565.583 286.185,572.699C284.567,572.806 282.957,572.843 281.498,571.934C280.46,568.699 283.309,568.787 284.965,568.046C295.064,563.469 305.235,559.081 315.029,553.847C325.041,548.498 333.522,541.091 342.33,534.12C344.936,532.048 347.686,530.15 350.181,527.929Z" style="fill:rgb(86,98,132);fill-rule:nonzero;"/>
    </g>
    <g transform="matrix(1,0,0,1,-0.00213126,-0.107952)">
        <path d="M396.876,491.82C397.89,487.343 400.843,485.437 405.274,485.5C405.001,486.525 404.736,487.559 404.463,488.586C406.349,493.156 404.652,497.013 402.08,500.702C396.65,501.148 393.698,504.82 391.202,509.089C387.052,511.888 383.926,515.765 380.528,519.352C367.492,531.479 354.14,543.241 339.648,553.655C334.185,557.585 328.204,560.602 322.542,564.181C318.007,566.006 313.546,568.015 308.872,569.465C306.898,570.076 304.897,570.974 302.797,569.848C301.572,567.22 303.967,566.919 305.309,566.435C323.346,560.019 337.794,547.853 352.455,536.297C367.581,524.377 381.116,510.62 393.943,496.228C395.106,494.92 395.877,493.276 396.876,491.82Z" style="fill:rgb(106,119,153);fill-rule:nonzero;"/>
    </g>
    <g transform="matrix(1,0,0,1,-0.00213126,-0.107952)">
        <path d="M357.453,576.701C348.388,581.848 339.908,588.039 330.194,592.028C328.753,592.619 327.302,593.185 325.855,593.764C325.093,595.401 323.67,596.29 322.146,597.076C310.505,601.806 298.369,604.669 285.988,606.604C284.061,606.902 282.127,606.897 280.271,606.109C278.42,604.822 277.075,603.313 278.044,600.832C279.532,599.441 281.416,598.993 283.357,598.811C291.773,597.999 299.975,596.098 308.124,593.942C320.019,590.372 331.497,585.822 342.118,579.294C346.918,577.496 350.413,573.356 355.369,571.816C355.923,571.809 356.435,571.941 356.919,572.204C358.045,573.204 358.687,574.302 357.64,575.741C357.604,576.066 357.542,576.387 357.453,576.701Z" style="fill:rgb(93,105,126);fill-rule:nonzero;"/>
    </g>
    <g transform="matrix(1,0,0,1,-0.00213126,-0.107952)">
        <path d="M357.637,575.742C357.28,574.658 356.919,573.58 356.56,572.491C355.929,571.06 356.764,569.946 357.745,569.363C363.965,565.673 364.344,559.61 364.463,553.396C365.573,549.934 367.6,547.4 371.378,546.684C374.686,548.413 373.025,551.669 373.725,554.949C379.799,549.394 384.287,543.168 388.19,536.567C390.064,533.389 386.835,530.15 387.27,526.791C387.387,525.46 387.911,524.286 388.679,523.208C391.249,521.216 390.869,516.555 395.126,516.071C398.655,519.016 398.854,522.685 397.169,526.573C395.916,529.462 394.401,532.229 393.719,535.341C384.79,551.586 372.738,565.027 357.637,575.742Z" style="fill:rgb(100,116,144);fill-rule:nonzero;"/>
    </g>
    <g transform="matrix(1,0,0,1,-0.00213126,-0.107952)">
        <path d="M393.715,535.344C392.836,533.005 393.519,530.927 394.794,528.958C397.549,524.713 397.57,520.481 394.771,516.249C394.193,510.253 397.578,505.761 400.491,501.086C403.172,502.042 403.709,504.841 405.302,506.731C403.119,516.951 399.472,526.576 393.715,535.344Z" style="fill:rgb(67,80,108);fill-rule:nonzero;"/>
    </g>
    <g transform="matrix(1,0,0,1,-0.00213126,-0.107952)">
        <path d="M405.305,506.732C402.108,506.306 401.719,503.688 401.067,501.279C400.724,501.049 400.613,500.836 400.743,500.628C400.868,500.423 400.985,500.327 401.111,500.327C403.483,496.769 403.877,492.653 404.466,488.589C406.864,489.013 407.657,487.355 408.141,485.219C408.875,492.853 407.777,499.892 405.305,506.732Z" style="fill:rgb(48,58,82);fill-rule:nonzero;"/>
    </g>
    <g transform="matrix(1,0,0,1,-0.00213126,-0.107952)">
        <path d="M415.818,307.168C416.801,300.422 415.629,293.57 417.163,286.807C418.032,282.992 422.791,277.864 426.761,277.46C429.171,277.213 430.612,278.07 430.735,280.45C430.834,282.364 430.851,284.39 430.337,286.209C429.248,290.088 428.207,293.154 430.209,297.782C432.638,303.391 429.193,309.787 425.578,314.807C422.961,318.437 419.574,321.624 415.047,323.63L415.047,316.035C415.855,313.127 413.503,309.95 415.818,307.168Z" style="fill:rgb(252,252,251);fill-rule:nonzero;"/>
    </g>
    <g transform="matrix(1,0,0,1,-0.00213126,-0.107952)">
        <path d="M398.085,337.016C396.162,347.164 386.426,348.188 379.668,352.623C377.834,353.829 375.374,354.093 373.206,354.782C372.496,352.774 373.173,351.183 375.11,350.594C377.993,349.721 378.331,347.353 378.258,345.171C377.99,337.099 379.865,329.133 379.369,321.064C380.915,317.776 384.068,317.836 386.981,317.393C388.138,316.604 387.24,320.971 389.449,318.282C390.669,316.807 392.871,314.889 394.848,316.926C396.869,319.003 395.994,321.713 394.18,323.582C390.323,327.555 386.901,331.684 386.164,337.43C385.943,339.118 384.824,341.215 386.781,342.218C388.817,343.263 389.941,341.181 390.838,339.773C392.439,337.264 394.566,336.187 397.482,336.564C397.683,336.721 397.883,336.869 398.085,337.016Z" style="fill:rgb(52,67,97);fill-rule:nonzero;"/>
    </g>
    <g transform="matrix(1,0,0,1,-0.00213126,-0.107952)">
        <path d="M379.944,320.755C381.884,322.241 380.914,324.318 380.838,326.082C380.561,332.538 380.263,338.996 379.569,345.41C379.278,348.09 380.758,352.734 374.893,351.726C374.518,351.658 373.776,353.715 373.203,354.784L370.322,357.992C365.582,359.633 364.964,356.368 364.612,353.058C363.929,346.702 365.238,340.444 365.678,334.141C365.758,331.133 366.23,328.377 369.921,327.794C373.085,328.405 372.553,331.038 372.825,333.195C373.375,337.557 371.731,341.843 372.734,346.283C374.452,339.733 374.827,332.99 375.312,326.26C375.75,323.498 376.33,320.848 379.944,320.755Z" style="fill:rgb(250,251,250);fill-rule:nonzero;"/>
    </g>
    <g transform="matrix(1,0,0,1,-0.00213126,-0.107952)">
        <path d="M370.422,328.055C368.155,329.244 366.71,330.934 366.998,333.68C365.525,335.846 363.28,335.422 361.155,335.41C360.656,335.358 360.177,335.19 359.756,334.92C358.801,333.767 358.664,332.639 359.831,331.54C364.68,330.683 367.573,326.817 370.942,323.911C377.849,317.967 384.739,312.019 391.778,306.221C395.879,302.853 400.325,301.587 405.43,301.846C407.314,304.003 406.864,306.459 406.332,308.922C405.235,311.878 403.067,312.902 400.063,312.429C396.435,310.256 393.513,311.096 390.909,314.324C389.848,315.646 388.867,317.234 387.04,317.76C385.016,319.577 382.188,319.478 379.942,320.759C378.135,322.193 376.511,323.741 376.506,326.289C375.218,329.417 372.814,328.715 370.422,328.055Z" style="fill:rgb(52,67,96);fill-rule:nonzero;"/>
    </g>
    <g transform="matrix(1,0,0,1,-0.00213126,-0.107952)">
        <path d="M361.013,334.844C361.28,334.932 361.571,334.92 361.83,334.809C363.724,336.926 363.221,339.198 361.758,341.104C357.401,346.769 359.975,353.475 358.81,359.605C358.659,360.402 359.165,359.431 359.432,359.401C362.467,359.087 361.423,360.868 360.985,362.339C359.105,364.947 357.606,369.588 354.092,368.228C351.218,367.114 352.977,362.549 352.927,359.455C352.846,354.607 355.004,349.594 351.861,344.901C351.438,344.275 351.781,342.532 352.387,341.921C355.251,339.037 355.451,335.447 355.75,331.746C355.878,330.177 356.273,328.235 358.682,328.343C359.696,329.927 358.998,331.685 359.182,333.354C359.311,334.526 359.512,335.442 361.013,334.844Z" style="fill:rgb(249,250,249);fill-rule:nonzero;"/>
    </g>
    <g transform="matrix(1,0,0,1,-0.00213126,-0.107952)">
        <path d="M360.988,362.339C360.891,361.644 360.789,360.338 360.712,360.338C354.947,360.481 357.567,356.212 357.703,353.943C357.997,348.92 356.266,343.288 361.543,339.388C362.658,338.569 362.089,336.388 361.832,334.812L367.001,333.684C366.704,340.518 366.321,347.344 366.148,354.186C366.08,356.789 366.463,359.442 370.325,358C367.209,359.443 364.097,360.893 360.988,362.339Z" style="fill:rgb(52,67,97);fill-rule:nonzero;"/>
    </g>
    <g transform="matrix(1,0,0,1,-0.00213126,-0.107952)">
        <path d="M405.168,309.304L405.43,301.844C405.447,298.106 405.08,294.36 406.421,290.692C407.065,288.926 407.905,287.159 409.731,287.444C411.458,287.709 410.561,289.759 410.621,291.027C410.718,293.097 410.601,295.175 410.582,297.253C409.859,300.185 409.936,303.101 410.663,306.025C411.449,309.155 411.443,312.358 410.243,315.31C409.079,318.157 409.341,320.711 410.579,323.342C410.953,327.671 408.92,330.262 404.811,331.371C401.563,328.871 402.908,325.294 402.737,322.125C402.499,317.679 403.807,313.47 405.168,309.304Z" style="fill:rgb(248,248,248);fill-rule:nonzero;"/>
    </g>
    <g transform="matrix(1,0,0,1,-0.00213126,-0.107952)">
        <path d="M338.246,380.481C338.809,370.817 339.265,362.017 339.86,353.228C340.056,350.345 340.223,350.265 344.006,350.623C345.309,350.743 344.745,349.798 345.013,349.383C346.128,347.693 346.236,345.324 349.071,344.056C349.19,347.224 349.538,349.705 346.938,352.119C344.756,354.145 343.947,357.207 343.764,360.302C343.483,365.057 342.893,369.806 342.862,374.56C342.837,377.552 341.409,378.962 338.246,380.481Z" style="fill:rgb(247,248,248);fill-rule:nonzero;"/>
    </g>
    <g transform="matrix(1,0,0,1,-0.00213126,-0.107952)">
        <path d="M405.168,309.304C405.513,316.662 403.143,323.982 404.807,331.365C401.557,332.045 401.505,336.537 398.089,337.014C398.089,337.017 397.93,336.854 397.93,336.854C397.055,336.135 396.58,335.125 396.583,334.074C396.61,327.037 397.277,320.035 397.973,313.038C398.039,312.341 398.619,311.806 399.21,311.388C401.431,311.38 403.821,311.829 405.168,309.304Z" style="fill:rgb(52,67,97);fill-rule:nonzero;"/>
    </g>
    <g transform="matrix(1,0,0,1,-0.00213126,-0.107952)">
        <path d="M410.57,323.333C408.798,323.804 408.465,322.827 408.585,321.372C409.253,313.326 409.913,305.291 410.579,297.244C410.738,299.654 410.434,302.227 411.212,304.421C411.77,306.019 412.958,308.528 415.82,307.168C415.946,310.154 416.122,313.149 415.052,316.036C414.796,315.267 414.561,313.609 413.881,314.158C412.29,315.45 409.736,316.573 410.539,319.346C410.942,320.751 411.391,321.986 410.57,323.333Z" style="fill:rgb(52,67,96);fill-rule:nonzero;"/>
    </g>
    <g transform="matrix(1,0,0,1,-0.00213126,-0.107952)">
        <path d="M361.013,334.844C360.078,335.905 358.988,337.455 358.753,334.502C358.593,332.458 358.696,330.398 358.684,328.348C360.848,328.766 359.15,330.578 359.83,331.534C359.729,332.813 359.618,334.099 361.013,334.844Z" style="fill:rgb(52,67,97);fill-rule:nonzero;"/>
    </g>
    <g transform="matrix(1,0,0,1,-0.00213126,-0.107952)">
        <path d="M438.226,294.728C438.298,289.676 438.744,286.018 440.496,282.652C441.064,281.568 441.846,280.333 443.285,280.666C444.471,280.94 444.579,282.207 444.619,283.28C444.79,287.879 444.619,292.458 443.001,296.832C442.402,298.447 441.576,300.626 439.557,300.199C437.682,299.808 438.362,297.563 438.24,296.047C438.169,295.179 438.226,294.287 438.226,294.728Z" style="fill:rgb(49,61,89);fill-rule:nonzero;"/>
    </g>
    <g transform="matrix(1,0,0,1,-0.00213126,-0.107952)">
        <path d="M87.807,285.92C84.579,276.866 81.356,267.81 79.078,258.457C78.379,255.598 77.036,252.072 80.295,250.351C83.507,248.649 86.832,250.149 89.369,252.785C104.76,268.8 120.353,284.63 128.452,306.059C130.247,310.797 133.254,315.072 135.636,319.593C136.35,320.942 137.195,321.932 138.816,322.002C139.908,328.703 138.986,335.714 142.062,342.122C142.852,343.758 144.328,345.444 142.874,347.487C142.158,347.521 141.439,347.551 140.722,347.586C138.11,347.016 137.949,344.614 137.213,342.728C133.364,332.851 129.855,322.836 126.142,312.907C125.475,311.13 125.204,308.376 123.216,308.225C120.805,308.035 121.217,311.055 120.369,312.643C117.499,318.038 117.341,324.605 113.165,329.448C111.816,329.391 110.933,328.65 110.306,327.52C109.311,323.882 106.632,321.121 105.191,317.72C104.326,315.678 103.492,313.592 106.923,312.989C110.38,312.379 110.187,309.636 109.835,307.182C108.904,300.672 106.336,294.93 100.887,290.92C97.068,288.11 93.251,285.28 89.228,282.674C88.705,283.791 89.232,285.288 87.807,285.92Z" style="fill:rgb(52,68,97);fill-rule:nonzero;"/>
    </g>
    <g transform="matrix(1,0,0,1,-0.00213126,-0.107952)">
        <path d="M87.807,285.92C88.291,284.25 87.11,282.46 88.342,280.489C98.15,287.48 109.716,292.685 111.206,306.886C111.816,312.74 110.335,314.836 105.063,314.304C106.914,317.879 108.722,321.221 110.363,324.65C110.758,325.475 112.525,326.631 110.306,327.52C107.799,326.465 106.516,324.387 105.375,322.039C102.079,315.248 98.645,308.519 95.266,301.764C98.384,300.271 100.031,303.013 102.215,304.201C103.106,304.69 103.944,305.846 104.977,305.196C106.293,304.372 105.614,302.959 105.296,301.826C104.692,299.696 103.208,298.184 101.473,296.915C99.067,295.16 96.569,293.541 93.327,291.018C94.195,294.684 91.856,297.17 93.23,300.032C93.406,304.048 92.904,308.097 94.117,312.069C94.422,313.07 95.003,314.875 93.426,315.237C91.789,315.61 90.939,314.025 90.75,312.62C90.05,307.282 89.501,301.921 88.887,296.576C87.294,294.898 88.771,292.799 88.131,290.991L87.807,285.92ZM113.162,329.443L120.687,307.597C121.072,306.486 121.118,304.952 122.767,305.012C124.154,305.063 124.86,306.266 125.315,307.407C127.065,311.798 128.779,316.202 130.457,320.621C133.89,329.606 137.297,338.592 140.722,347.58C137.949,349.694 136.944,347.406 136.288,345.499C135.634,343.554 134.694,341.716 133.5,340.046C131.018,337.871 128.136,336.288 125.404,334.485C122.52,332.569 120.529,330.074 121.168,326.288C124.052,322.353 125.762,326.693 128.097,327.011C127.102,323.74 125.862,320.33 124.431,316.568C122.977,319.623 122.525,322.807 120.964,325.533C120.241,327.373 119.948,329.483 117.92,330.526C115.724,332.845 114.479,330.981 113.162,329.443ZM142.872,347.487C139.265,339.354 136.027,331.155 138.813,322.002C140.734,318.828 143.258,319.738 145.546,321.274C149.618,324.005 153.483,327.052 157.536,329.812C159.334,331.038 159.118,332.278 158.248,333.835C156.89,336.249 155.855,334.01 154.994,333.468C152.456,331.872 150.142,329.938 147.638,328.279C143.859,325.772 141.552,326.761 141.558,331.331C141.564,338.636 143.754,345.279 149.752,350.031C153.08,352.652 156.514,355.137 160.045,357.478C162.007,358.788 162.684,360.071 161.379,362.222C159.615,365.143 157.792,362.161 157.261,361.692C152.224,357.216 145.371,354.512 142.872,347.487Z" style="fill:rgb(251,251,251);fill-rule:nonzero;"/>
    </g>
    <g transform="matrix(1,0,0,1,-0.00213126,-0.107952)">
        <path d="M93.227,300.027C91.854,296.661 92.358,293.101 91.883,287.996C97.533,293.439 104.82,295.084 106.99,302.477C107.505,304.233 108.311,306.61 106.422,307.81C104.926,308.758 103.723,306.667 102.38,305.959C99.94,304.676 98.302,302.028 95.266,301.764C95.104,301.169 94.729,300.544 94.821,299.994C94.997,298.936 96.131,297.376 94.396,297.197C92.864,297.042 93.561,299.016 93.227,300.027Z" style="fill:rgb(53,68,97);fill-rule:nonzero;"/>
    </g>
    <g transform="matrix(1,0,0,1,-0.00213126,-0.107952)">
        <path d="M121.766,326.226C122.089,331.875 126.76,333.957 130.491,336.755C131.735,337.691 133.063,338.428 133.495,340.052C127.783,337.723 122.844,334.139 117.915,330.527C118.634,328.761 118.625,326.704 120.062,325.23C120.941,325.043 121.515,325.364 121.766,326.226ZM88.129,290.982C89.053,292.756 89.053,294.648 88.89,296.564C88.33,297.601 87.773,298.636 87.212,299.668C87.129,297.208 87.05,294.748 86.967,292.29L88.129,290.982Z" style="fill:rgb(52,68,97);fill-rule:nonzero;"/>
    </g>
    <g transform="matrix(1,0,0,1,-0.00213126,-0.107952)">
        <path d="M60.339,274.212C60.335,272.305 60.017,270.162 61.97,268.954C64.12,267.62 65.549,269.494 67.108,270.485C75.153,275.6 82.337,281.361 83.333,291.857C83.518,293.818 83.589,295.712 82.787,297.551C82.15,299 81.253,299.725 79.49,299.253C69.897,296.673 60.37,284.295 60.339,274.212Z" style="fill:rgb(44,56,84);fill-rule:nonzero;"/>
    </g>
    <g transform="matrix(1,0,0,1,-0.00213126,-0.107952)">
        <path d="M350.181,527.929C344.248,534.487 336.788,539.229 330.118,544.902C317.129,555.936 301.489,561.911 286.153,568.518C284.398,569.275 282.47,569.828 281.194,571.432C275.613,575.569 269.088,575.577 262.609,575.545C248.236,575.468 237.312,567.42 226.575,559.359C202.858,541.57 180.647,521.88 157.152,503.803C145.818,495.08 134.174,486.806 122.593,478.432C120.481,476.905 118.299,475.285 115.557,474.918C113.714,472.64 114.923,469.975 114.624,467.502C120.859,470.45 125.978,475.045 131.428,479.104C148.349,491.724 165.25,504.369 181.874,517.371C197.109,529.285 211.78,541.919 227.07,553.765C236.333,560.95 245.516,568.706 257.852,570.38C263.589,573.15 269.441,571.262 274.734,569.683C297.516,562.901 318.389,552.215 337.088,537.386C341.296,534.055 344.944,529.868 350.181,527.929Z" style="fill:rgb(86,91,112);fill-rule:nonzero;"/>
    </g>
    <g transform="matrix(1,0,0,1,-0.00213126,-0.107952)">
        <path d="M127.289,499.268C126.711,494.096 122.932,493.228 118.748,492.907C118.128,491.149 117.503,489.402 116.883,487.65C119.888,485.959 121.831,488.379 124.026,489.565C140.469,498.469 154.428,510.761 168.865,522.428C184.95,535.426 199.91,549.808 216.779,561.837C225.83,568.296 234.882,574.801 245.138,579.387C250.415,581.749 255.944,582.163 261.561,582.988C281.251,585.875 298.574,577.507 316.591,572.345C319.125,571.621 321.446,570.202 324.075,569.692C324.604,569.689 325.113,569.797 325.587,570.034C326.744,572.618 324.43,573.654 323.261,575.173C321.932,576.891 319.665,577.883 319.251,580.333C315.809,583.361 311.332,583.796 307.206,585.067C299.706,587.391 292.005,589.013 284.205,589.914C280.127,590.449 276.074,591.276 271.925,590.989C271.043,590.978 270.158,590.981 269.28,590.978C265.824,590.788 262.342,591.226 258.904,590.605C252.885,588.139 246.911,585.603 240.633,583.665C233.858,581.575 228.637,576.351 222.633,572.656C199.138,558.201 180.199,538.153 159.101,520.754C151.055,514.11 142.826,507.722 134.174,501.874C132.047,500.427 129.663,499.914 127.289,499.268Z" style="fill:rgb(164,170,187);fill-rule:nonzero;"/>
    </g>
    <g transform="matrix(1,0,0,1,-0.00213126,-0.107952)">
        <path d="M324.682,570.34C314.476,575.286 303.636,578.293 292.66,580.918C288.907,581.813 285.323,583.577 281.546,584.103C262.184,586.817 244.817,582.75 228.244,571.489C202.07,553.713 179.356,531.815 154.638,512.34C142.789,503.004 130.87,493.729 116.883,487.644C116.546,485.876 116.203,484.115 115.864,482.346C117.83,480.535 119.42,482.155 121.103,482.923C131.595,487.731 140.647,494.801 149.655,501.794C161.171,510.742 172.756,519.633 183.586,529.439C197.178,542.633 211.746,554.643 227.371,565.35C236.737,571.768 246.523,577.288 257.878,579.663C268.426,581.871 278.861,581.461 289.068,578.544C298.904,575.738 308.491,572.038 317.982,568.176C320.588,567.661 322.97,565.707 325.852,566.954C326.839,568.566 326.114,569.578 324.682,570.34Z" style="fill:rgb(140,145,167);fill-rule:nonzero;"/>
    </g>
    <g transform="matrix(1,0,0,1,-0.00213126,-0.107952)">
        <path d="M115.552,474.918C116.396,471.683 118.045,474.024 118.975,474.63C132.351,483.379 145.224,492.838 157.781,502.71C171.159,513.228 184.555,523.729 197.699,534.539C210.038,544.696 222.403,554.754 235.409,564.087C249.658,574.313 264.694,576.729 281.196,571.438L286.509,571.444C285.224,576.061 280.366,574.916 277.528,577.027C269.086,579.18 260.633,578.379 252.177,577.161C250.428,577.115 248.741,576.737 247.1,576.154C244.822,575.358 242.44,574.781 240.55,573.142C234.089,567.477 227.249,562.352 219.453,558.625C214.993,556.595 211.517,553.271 208.006,549.976C198.73,539.738 187.547,531.657 176.862,523.082C162.301,511.404 147.951,499.426 132.565,488.779C126.939,484.883 120.458,482.172 115.727,477.007C115.668,476.314 115.608,475.614 115.552,474.918Z" style="fill:rgb(107,108,134);fill-rule:nonzero;"/>
    </g>
    <g transform="matrix(1,0,0,1,-0.00213126,-0.107952)">
        <path d="M115.724,477.005C127.943,483.274 138.921,491.422 149.632,499.895C167.497,514.033 185.232,528.342 202.934,542.688C205.215,544.53 206.992,546.988 209.009,549.154C206.247,551.279 204.707,548.654 203.164,547.36C196.261,541.593 189.327,535.875 182.487,530.042C165.731,515.984 148.85,502.065 130.785,489.712C126.251,486.607 121.39,483.668 115.862,482.354L115.724,477.005Z" style="fill:rgb(120,125,147);fill-rule:nonzero;"/>
    </g>
    <g transform="matrix(1,0,0,1,-0.00213126,-0.107952)">
        <path d="M131.529,508.874C130.861,507.522 130.301,506.145 130.475,504.59C133.335,502.932 135.084,505.224 136.994,506.553C152.483,517.381 166.55,529.996 180.903,542.206C195.556,554.67 210.651,566.499 226.379,577.531C229.96,580.039 234.314,581.401 237.871,584.021C239.47,585.195 242.542,586.021 240.224,589.143C236.481,590.313 232.956,588.586 229.308,588.401C225.914,587.662 222.474,587.067 219.155,586.02C217.636,585.542 215.517,585.599 215.395,583.171C214.405,579.228 211.443,576.853 208.124,575.337C196.691,570.118 188.557,560.6 178.767,553.262C166.176,543.824 155.25,532.321 141.603,524.076C136.412,520.952 134.289,514.373 131.529,508.874Z" style="fill:rgb(197,202,213);fill-rule:nonzero;"/>
    </g>
    <g transform="matrix(1,0,0,1,-0.00213126,-0.107952)">
        <path d="M154.837,563.102C153.455,561.59 152.079,560.079 150.707,558.568C149.201,554.13 153.224,554.036 155.677,552.266C151.043,547.605 146.348,542.949 141.68,538.274C139.681,536.169 138.242,533.609 136.16,531.559C135.229,530.128 133.865,528.825 134.724,526.846C136.669,524.983 138.162,526.808 139.198,527.818C142.109,530.677 145.978,532.422 148.686,535.266C160.124,547.255 173.218,557.3 185.742,568.015C186.728,568.858 187.619,570.054 187.248,571.772C182.928,571.06 180.235,567.05 175.48,566.424C176.447,571.893 182.234,575.258 181.413,581.098C180.246,582.016 179.027,581.644 177.958,581.029C170.781,576.897 163.913,572.318 157.602,566.916C156.364,565.862 155.916,564.257 154.837,563.102Z" style="fill:rgb(239,241,244);fill-rule:nonzero;"/>
    </g>
    <g transform="matrix(1,0,0,1,-0.00213126,-0.107952)">
        <path d="M215.397,583.177C219.64,585.727 224.828,585.122 229.192,587.274C230.991,589.222 232.124,591.603 233.278,593.921C235.375,598.13 234.035,600.383 229.365,600.144C226.401,599.993 223.852,600.162 221.881,602.61C214.677,602.616 208.094,600.69 202.281,596.33C202.161,594.538 202.679,593.032 204.273,592.042C206.808,591.055 209.06,592.306 211.396,592.934C212.366,593.19 213.474,593.927 214.303,592.904C215.065,591.965 214.34,590.915 214.041,589.933C213.366,587.709 211.276,585.64 213.261,583.111C213.973,583.131 214.683,583.151 215.397,583.177Z" style="fill:rgb(157,167,190);fill-rule:nonzero;"/>
    </g>
    <g transform="matrix(1,0,0,1,-0.00213126,-0.107952)">
        <path d="M204.782,592.656C202.659,591.592 200.539,590.52 198.412,589.458C201.099,585.73 197.554,583.413 196.347,580.6C195.873,579.501 194.74,578.535 195.878,577.362C196.768,576.445 197.801,577.106 198.776,577.493C203.6,579.376 208.435,581.236 213.265,583.111C213.039,586.279 215.432,588.523 216.162,591.333C216.881,594.098 216.796,596.327 212.74,594.818C210.173,593.865 207.436,593.364 204.782,592.656Z" style="fill:rgb(197,202,213);fill-rule:nonzero;"/>
    </g>
    <g transform="matrix(1,0,0,1,-0.00213126,-0.107952)">
        <path d="M240.792,588.327C239.202,584.963 235.651,584.04 232.852,582.459C213.472,571.515 196.774,557.062 179.8,542.894C164.982,530.518 150.548,517.637 134.817,506.371C133.521,505.443 132.143,504.644 130.475,504.593C129.411,502.821 128.349,501.043 127.289,499.268C129.331,497.83 131.271,498.313 133.17,499.582C142.531,505.838 151.547,512.559 160.098,519.88C172.511,530.505 185.303,540.734 197.137,551.968C209.269,563.494 223.855,571.365 237.36,580.818C241.768,583.904 247.784,584.666 253.014,586.632C254.745,587.281 256.982,587.238 257.837,589.454C253.358,592.315 248.535,590.907 243.795,590.593C242.513,590.213 241.412,589.586 240.792,588.327Z" style="fill:rgb(168,173,190);fill-rule:nonzero;"/>
    </g>
    <g transform="matrix(1,0,0,1,-0.00213126,-0.107952)">
        <path d="M278.01,575.677C280.403,573.39 284.325,574.16 286.506,571.441C310.653,563.403 332.219,550.872 351.663,534.481C363.247,524.723 374.808,514.977 385.252,503.988C389.119,499.915 392.089,495.003 396.876,491.818C396.636,496.06 393.567,498.608 390.997,501.388C370.817,523.261 348.605,542.769 323.671,559.104C317.035,563.447 309.33,565.542 302.421,569.305C294.913,573.844 287.098,577.206 278.01,575.677Z" style="fill:rgb(102,113,142);fill-rule:nonzero;"/>
    </g>
    <g transform="matrix(1,0,0,1,-0.00213126,-0.107952)">
        <path d="M182.487,530.042C188.757,533.034 193.111,538.532 198.67,542.432C202.024,544.791 204.265,548.918 209.007,549.154C212.186,552.442 215.813,555.161 219.623,557.651C226.708,562.588 233.788,567.548 240.864,572.491C242.98,573.205 245.104,573.915 247.22,574.629C249.411,577.593 252.997,576.978 255.874,577.517C265.601,579.333 275.362,579.032 284.899,575.969C297.872,572.835 310.673,569.175 322.583,562.955C343.818,550.841 361.93,534.71 379.896,518.39C381.375,520.947 379.265,522.278 377.925,523.706C366.454,535.969 353.395,546.402 339.799,556.14C332.977,561.026 326.327,566.299 318.326,569.319C307.462,574.316 296.228,579.05 284.697,581.347C266.18,585.03 248.466,580.849 232.36,570.428C214.871,559.109 199.163,545.599 183.699,531.769C183.193,531.3 182.891,530.617 182.487,530.042Z" style="fill:rgb(127,137,162);fill-rule:nonzero;"/>
    </g>
    <g transform="matrix(1,0,0,1,-0.00213126,-0.107952)">
        <path d="M318.334,569.308C324.079,565.378 329.85,561.493 335.558,557.511C350.595,547.039 364.831,535.609 377.526,522.335C378.618,521.194 379.941,520.196 379.904,518.382C383.269,515 385.592,510.468 390.507,508.8C390.363,514.352 387.294,518.458 383.821,522.375C378.4,525.266 374.979,530.414 370.808,534.579C361.873,543.498 351.805,550.841 341.534,557.961C337.905,560.474 334.473,563.23 330.855,565.744C329.379,566.763 328.031,568.723 325.775,567.187C323.292,567.895 320.815,568.605 318.334,569.308Z" style="fill:rgb(127,142,174);fill-rule:nonzero;"/>
    </g>
    <g transform="matrix(1,0,0,1,-0.00213126,-0.107952)">
        <path d="M383.085,521.542C386.56,517.875 388.22,513.156 390.505,508.8C392.698,504.294 394.321,499.073 401.111,500.323C401.087,500.641 401.072,500.96 401.067,501.279L394.774,516.246C392.256,518.216 392.384,522.025 389.537,523.763C387.43,522.747 384.953,524.218 382.907,522.769C382.63,522.312 382.697,521.905 383.085,521.542Z" style="fill:rgb(150,164,188);fill-rule:nonzero;"/>
    </g>
    <g transform="matrix(1,0,0,1,-0.00213126,-0.107952)">
        <path d="M322.589,562.951C320.888,566.159 317.325,566.146 314.561,567.391C306.794,570.893 298.819,573.922 290.604,576.216C288.961,576.675 287.166,576.58 285.433,576.748C275.739,579.656 265.906,580.304 255.983,578.238C254.341,577.898 252.055,578.131 251.472,575.68C260.317,576.823 269.163,577.724 278.007,575.68C286.532,575.037 294.297,571.499 302.419,569.309C309.74,569.073 315.766,564.761 322.589,562.951Z" style="fill:rgb(118,124,146);fill-rule:nonzero;"/>
    </g>
    <g transform="matrix(1,0,0,1,-0.00213126,-0.107952)">
        <path d="M284.408,588.575C296.409,586.314 308.463,584.252 319.671,579.058C326.932,574.678 334.356,570.668 342.672,568.581C347.253,572.323 344.39,576.191 342.876,580.036C332.467,587.112 320.943,591.62 308.859,594.848C302.607,595.927 296.333,596.885 289.978,596.257C284.877,595.747 283.344,593.474 284.408,588.575Z" style="fill:rgb(34,42,66);fill-rule:nonzero;"/>
    </g>
    <g transform="matrix(1,0,0,1,-0.00213126,-0.107952)">
        <path d="M280.086,605.323C267.715,607.084 255.34,607.227 242.96,605.42C247.174,601.628 247.26,600.708 243.795,596.017C242.667,594.491 241.133,593.193 240.775,591.228C240.452,589.471 240.941,588.447 242.962,589.504C247.92,589.484 252.883,589.471 257.841,589.454L269.538,589.559C268.861,592.503 266.332,591.441 264.495,591.945C262.706,592.436 259.931,590.573 259.236,593.507C258.665,595.901 262.673,600.395 265.132,600.67C267.262,600.907 269.308,600.21 271.393,599.953C272.618,599.801 273.842,599.726 275.081,599.828C276.205,599.968 277.265,600.236 277.99,601.21C278.684,602.579 279.382,603.953 280.086,605.323Z" style="fill:rgb(109,123,147);fill-rule:nonzero;"/>
    </g>
    <g transform="matrix(1,0,0,1,-0.00213126,-0.107952)">
        <path d="M277.985,601.205C276.944,601.173 275.903,601.143 274.86,601.108C273.235,598.569 274.066,594.912 270.824,592.972C269.775,592.349 269.914,590.4 271.665,589.623C275.912,589.272 280.161,588.924 284.407,588.572C284.444,593.239 286.745,595.059 291.426,594.84C297.219,594.569 303.047,594.818 308.861,594.843C298.937,598.768 288.354,599.47 277.985,601.205Z" style="fill:rgb(50,60,88);fill-rule:nonzero;"/>
    </g>
    <g transform="matrix(1,0,0,1,-0.00213126,-0.107952)">
        <path d="M342.877,580.036C342.701,577.946 342.842,575.943 343.488,573.881C344.011,572.192 344.685,569.943 341.765,569.345C344.575,564.12 349.765,562.325 354.825,560.398C355.436,560.168 356.011,560.977 356.357,561.609C357.347,565.338 357.674,569.007 355.414,572.449C351.213,574.951 347.734,578.634 342.877,580.036Z" style="fill:rgb(54,69,103);fill-rule:nonzero;"/>
    </g>
    <g transform="matrix(1,0,0,1,-0.00213126,-0.107952)">
        <path d="M355.413,572.454C355.428,568.475 355.445,564.493 355.456,560.52C357.442,556.617 360.183,553.689 364.853,553.278C366.97,558.384 365.144,565.409 360.692,568.703C359.165,569.835 357.407,570.651 356.554,572.494C356.174,572.478 355.793,572.464 355.413,572.454Z" style="fill:rgb(78,96,137);fill-rule:nonzero;"/>
    </g>
    <g transform="matrix(1,0,0,1,-0.00213126,-0.107952)">
        <path d="M364.856,553.273C361.722,555.684 358.593,558.103 355.459,560.515L341.762,569.343C334.441,572.676 327.532,576.953 319.671,579.052C319.327,574.474 324.612,573.884 325.812,570.401C328.849,566.194 333.83,564.857 337.997,562.425C353.684,553.262 367.154,541.66 378.121,527.184C379.531,525.332 380.891,523.554 383.098,522.641C385.123,523.709 388.129,519.154 389.535,523.765C389.119,524.761 388.698,525.747 388.281,526.741C384.111,534.695 379.221,542.045 371.386,546.931L364.856,553.273Z" style="fill:rgb(178,190,210);fill-rule:nonzero;"/>
    </g>
    <g transform="matrix(1,0,0,1,-0.00213126,-0.107952)">
        <path d="M371.387,546.93C377.02,540.201 382.652,533.475 388.286,526.741C387.934,530.229 391.804,533.259 389.625,536.837C385.325,543.919 380.501,550.622 374.341,556.25C373.838,556.712 373.272,557.281 372.509,556.816C371.441,556.146 371.276,555.04 371.719,554.026C372.802,551.569 372.671,549.238 371.387,546.93Z" style="fill:rgb(123,143,185);fill-rule:nonzero;"/>
    </g>
    <g transform="matrix(1,0,0,1,-0.00213126,-0.107952)">
        <path d="M420.347,314.168C420.347,310.675 420.249,307.549 420.38,304.423C420.478,302.093 422.231,300.686 424.228,300.874C426.721,301.099 426.007,303.511 425.852,305.123C425.496,308.877 424.39,312.281 420.347,314.168Z" style="fill:rgb(53,67,95);fill-rule:nonzero;"/>
    </g>
    <g transform="matrix(1,0,0,1,-0.00213126,-0.107952)">
        <path d="M421.039,296.42C421.223,292.919 421.213,290.134 421.576,287.392C421.768,285.903 423.18,284.798 424.592,284.912C426.516,285.063 426.312,286.911 426.119,288.234C425.67,291.2 424.949,294.108 421.039,296.42Z" style="fill:rgb(56,69,97);fill-rule:nonzero;"/>
    </g>
    <g transform="matrix(1,0,0,1,-0.00213126,-0.107952)">
        <path d="M399.207,311.389C398.781,319.879 398.348,328.362 397.927,336.855C394.346,337.736 391.901,340 389.955,343.053C389.225,344.202 387.816,345.206 386.361,344.768C384.529,344.219 384.412,342.372 384.455,340.803C384.645,334.602 386.537,329.051 391.105,324.634C391.992,323.775 392.994,323.044 393.861,322.17C395.32,320.703 395.356,318.598 394.251,317.383C393.106,316.115 391.798,317.853 390.766,318.667C389.677,319.522 388.726,320.54 387.706,321.497C386.693,320.24 387.134,318.96 387.046,317.757C388.139,314.704 390.676,312.804 392.871,310.675C395.115,308.494 397.382,308.564 399.207,311.389Z" style="fill:rgb(251,251,250);fill-rule:nonzero;"/>
    </g>
    <g transform="matrix(1,0,0,1,-0.00213126,-0.107952)">
        <path d="M370.422,328.055C372.415,327.341 374.814,328.015 376.509,326.284C376.184,332.435 375.889,338.59 375.487,344.731C375.411,345.774 375.071,346.781 374.498,347.656C373.781,348.723 373.107,350.47 371.44,349.841C370.083,349.33 370.467,347.694 370.53,346.516C370.778,341.775 371.199,337.037 371.386,332.285C371.443,330.863 372.391,329.074 370.422,328.055Z" style="fill:rgb(52,67,97);fill-rule:nonzero;"/>
    </g>
    <g transform="matrix(1,0,0,1,-0.00213126,-0.107952)">
        <path d="M121.766,326.226C121.197,325.894 120.634,325.56 120.065,325.23C121.314,321.456 122.556,317.685 124.258,312.543L130.605,329.856C126.833,329.862 125.725,324.747 121.766,326.226Z" style="fill:rgb(56,71,100);fill-rule:nonzero;"/>
    </g>
    <g transform="matrix(1,0,0,1,-0.00213126,-0.107952)">
        <path d="M383.099,522.642C368.477,543.924 348.944,559.323 325.812,570.404C325.434,570.381 325.059,570.367 324.68,570.341C325.041,569.292 325.411,568.245 325.772,567.193C333.122,562.141 340.451,557.059 347.825,552.045C357.427,545.509 365.845,537.562 374.33,529.709C377.254,526.996 378.826,522.836 383.089,521.55L383.099,522.642Z" style="fill:rgb(146,159,190);fill-rule:nonzero;"/>
    </g>
    <g transform="matrix(1,0,0,1,-0.00213126,-0.107952)">
        <path d="M271.668,589.624C270.676,591.041 271.08,592.875 272.174,593.356C276.096,595.065 274.671,598.307 274.86,601.109C273.805,601.148 272.74,601.112 271.696,601.24C261.148,602.561 260.22,602.03 256.546,592.815C255.533,590.267 257.431,590.764 258.696,590.6C262.299,590.144 266.074,591.458 269.54,589.553C270.246,589.582 270.958,589.602 271.668,589.624Z" style="fill:rgb(77,90,121);fill-rule:nonzero;"/>
    </g>
    <g transform="matrix(1,0,0,1,-0.00213126,-0.107952)">
        <path d="M240.872,572.488C232.784,568.984 225.651,564.107 219.629,557.648C221.555,557.357 222.932,558.406 224.391,559.425C229.101,562.735 233.83,566.021 238.625,569.211C239.88,570.051 240.833,570.899 240.872,572.488Z" style="fill:rgb(118,124,146);fill-rule:nonzero;"/>
    </g>
    <g transform="matrix(1,0,0,1,-0.00213126,-0.107952)">
        <path d="M251.475,575.677C261.009,580.199 270.869,579.178 280.775,577.434C282.322,577.158 283.883,576.967 285.434,576.749C272.96,581.705 260.53,580.966 248.156,576.378C247.693,576.205 247.525,575.226 247.223,574.629C248.556,575.324 249.931,575.847 251.475,575.677Z" style="fill:rgb(120,125,147);fill-rule:nonzero;"/>
    </g>
    <g transform="matrix(1,0,0,1,-0.00213126,-0.107952)">
        <path d="M242.959,589.502C239.712,590.417 242.252,592.022 242.814,592.813C244.095,594.63 245.83,596.068 246.833,598.164C249.134,602.937 248.481,604.246 242.956,605.415C235.698,605.391 228.679,603.893 221.714,602.044C222.331,598.606 223.984,597.224 227.579,598.629C229.282,599.3 231.692,599.883 232.866,598.103C234.078,596.271 232.223,594.589 231.171,593.048C229.974,591.291 228.997,589.487 229.189,587.272C233.054,587.619 236.925,587.971 240.789,588.321C241.517,588.717 242.24,589.109 242.959,589.502Z" style="fill:rgb(130,144,168);fill-rule:nonzero;"/>
    </g>
    <g transform="matrix(1,0,0,1,-0.00213126,-0.107952)">
        <path d="M393.343,327.447C393.793,327.736 394.028,327.8 394.04,327.904C394.472,331.328 394.08,334.482 390.943,336.621C390.3,337.056 389.432,336.846 389.307,336.069C388.712,332.43 390.24,329.685 393.343,327.447Z" style="fill:rgb(62,76,105);fill-rule:nonzero;"/>
    </g>
</svg>
