<?xml version="1.0" encoding="UTF-8" standalone="no"?>
<!DOCTYPE svg PUBLIC "-//W3C//DTD SVG 1.1//EN" "http://www.w3.org/Graphics/SVG/1.1/DTD/svg11.dtd">
<svg width="100%" height="100%" viewBox="0 0 256 298" version="1.1" xmlns="http://www.w3.org/2000/svg" xmlns:xlink="http://www.w3.org/1999/xlink" xml:space="preserve" xmlns:serif="http://www.serif.com/" style="fill-rule:evenodd;clip-rule:evenodd;stroke-linejoin:round;stroke-miterlimit:2;">
    <g>
        <path d="M34.831,-0L119.52,78.028L119.52,0.18L136.006,0.18L136.006,78.377L221.074,-0L221.074,88.964L256,88.964L256,217.286L221.181,217.286L221.181,296.504L136.006,221.671L136.006,297.363L119.52,297.363L119.52,222.904L34.927,297.412L34.927,217.286L0,217.286L0,88.964L34.831,88.964L34.831,-0ZM107.092,105.248L16.486,105.248L16.486,201.001L34.906,201.001L34.906,170.797L107.092,105.248ZM51.412,178.023L51.412,261.075L119.52,201.087L119.52,116.161L51.412,178.023ZM136.48,200.294L136.48,116.081L204.608,177.946L204.608,217.286L204.696,217.286L204.696,260.227L136.48,200.294ZM221.181,201.001L239.514,201.001L239.514,105.248L149.583,105.248L221.181,170.119L221.181,201.001ZM204.588,88.964L204.588,37.457L148.684,88.964L204.588,88.964ZM107.22,88.964L51.317,88.964L51.317,37.457L107.22,88.964Z" style="fill:rgb(63,126,139);fill-rule:nonzero;"/>
    </g>
</svg>
