<?xml version="1.0" encoding="iso-8859-1"?>
<!-- Generator: Adobe Illustrator 26.0.3, SVG Export Plug-In . SVG Version: 6.00 Build 0)  -->
<svg version="1.1" xmlns="http://www.w3.org/2000/svg" xmlns:xlink="http://www.w3.org/1999/xlink" x="0px" y="0px"
	 viewBox="0 0 48 48" style="enable-background:new 0 0 48 48;" xml:space="preserve">
<g id="Layer_1">
</g>
<g id="Layer_6">
</g>
<g id="&#x421;&#x43B;&#x43E;&#x439;_1">
	<g>
		<path style="fill:#434345;" d="M12,10l12,13l12-13l0,0c-2.17-2.17-5.719-2.066-7.758,0.228L24,15l-4.242-4.772
			C17.719,7.934,14.17,7.83,12,10L12,10z"/>
	</g>
	<g>
		<path style="fill:#FB8C00;" d="M13.613,33.896L23.001,24l-9.388-9.896C11.48,11.855,7.912,11.808,5.72,14l0,0l9.281,10L5.72,34
			l0,0C7.912,36.192,11.48,36.145,13.613,33.896z"/>
	</g>
	<g>
		<path style="fill:#FB8C00;" d="M34.388,33.896L25,24l9.388-9.896c2.133-2.249,5.701-2.296,7.893-0.104l0,0L33,24l9.281,10l0,0
			C40.089,36.192,36.521,36.145,34.388,33.896z"/>
	</g>
	<g>
		<path style="fill:#434345;" d="M35.991,38.004l-12-13l-12,13l0,0c2.17,2.17,5.719,2.066,7.758-0.228l4.242-4.772l4.242,4.772
			C30.272,40.07,33.821,40.174,35.991,38.004L35.991,38.004z"/>
	</g>
</g>
</svg>